<svg width="1414" height="768" viewBox="0 0 1414 768" fill="none" xmlns="http://www.w3.org/2000/svg">
<g clip-path="url(#clip0_1_2)">
<path d="M434.71 203.35C427.54 211.95 421.12 221.15 414.76 230.32C413.28 232.45 412.04 234.73 410.73 237C408.16 241.41 403.79 245.91 402.3 250.27C401.02 254.04 399.48 257.39 398.54 261.34C397.573 265.367 396.317 269.3 394.77 273.14C392.69 278.29 391.75 283.05 390.44 289.3C389.77 292.51 388.4 295.67 387.78 298.6C385.9 307.56 385.42 316.09 384.63 328.26C384.04 337.31 385.4 346.77 385.51 356.05C385.55 358.99 386.25 361.46 386.95 364.23C387.99 368.37 388.37 372.88 389.45 377.19C390.97 383.28 390.22 389.34 392.01 395.23C392.67 397.42 394.68 408.52 399.05 405.83C400.19 405.13 401.373 404.06 402.6 402.62C407.607 396.753 412.69 390.96 417.85 385.24C423.59 378.88 421.19 374.82 420.84 368C420.193 355.227 420.097 340.727 420.55 324.5C420.67 320.347 421.49 314.697 423.01 307.55" stroke="#FFEF81" stroke-width="2"/>
<path d="M423.01 307.55C424.74 301.19 426.05 294.39 428.01 288.57C440.55 251.48 464.47 219.67 497.59 198.1C507.79 191.45 515.88 187.59 527.76 182.78C550.67 173.5 572.64 170.99 597.05 172.22C602.417 172.493 607.7 173.047 612.9 173.88C619.28 174.907 624.48 176.04 628.5 177.28C632.227 178.433 634.83 179.137 636.31 179.39" stroke="#FFF5AE" stroke-width="2"/>
<path d="M636.31 179.39C639.58 180.88 642.96 181.94 646.08 183.48C650.073 185.433 654.17 187.153 658.37 188.64C659.343 188.987 660.237 188.797 661.05 188.07C669.743 180.243 677.4 171.863 684.02 162.93C686.17 160.03 691.39 156.18 685.6 153.11C678.447 149.31 672.323 146.713 667.23 145.32C664.997 144.713 663.097 144.133 661.53 143.58C657.78 142.26 654.92 141.54 651.61 140.43C648.45 139.38 645.14 138.91 641.9 137.85C637.37 136.37 632.94 135.84 628.4 134.79C622.92 133.52 616.88 133.2 611.15 131.66C610.63 131.52 609.89 131.6 609.3 131.38" stroke="#FFEF81" stroke-width="2"/>
<path d="M609.3 131.38C598.81 130.19 587.58 130.73 577 130.76C571.14 130.77 565.56 133.75 560.5 133.64C554.26 133.5 548.68 135.06 542.81 137.26C533.73 140.67 525.11 143.87 515.97 148.16C505.78 152.92 494.64 156.79 485.31 162.34C481.043 164.873 474.81 168.787 466.61 174.08C454.52 181.89 444.09 192.59 434.71 203.35" stroke="#FFF5AE" stroke-width="2"/>
<path d="M609.3 131.38C609.273 131.58 609.093 131.66 608.76 131.62C608.667 131.613 608.62 131.657 608.62 131.75C608.62 131.85 608.617 131.95 608.61 132.05C608.603 132.19 608.667 132.283 608.8 132.33C609.453 132.557 610.04 132.887 610.56 133.32C610.833 133.547 610.997 133.837 611.05 134.19C611.31 135.96 612.28 137.01 614.13 137.35C619.03 138.257 623.94 139.13 628.86 139.97C630.25 140.21 631.56 139.89 632.96 139.74C635.28 139.5 637.28 140.53 639.48 141.11C643.21 142.1 647.51 140.83 650.86 142.16C653.427 143.173 655.527 143.69 657.16 143.71C657.48 143.717 657.773 143.81 658.04 143.99C660.43 145.64 663.35 145.88 666.01 146.96C666.983 147.36 668.197 148.187 669.65 149.44C671.58 151.12 673.7 151.94 675.78 153.35C678.08 154.91 680.75 156.07 683.02 157.56C683.289 157.734 683.48 158.006 683.551 158.32C683.622 158.634 683.568 158.964 683.4 159.24C679.72 165.16 676.69 169.57 670.78 175.33C669.493 176.59 668.077 178.22 666.53 180.22C664.843 182.4 663.333 183.96 662 184.9C659.92 186.367 657.7 186.617 655.34 185.65C653.493 184.897 650.78 183.623 647.2 181.83C646.913 181.69 646.613 181.62 646.3 181.62H644.96C644.624 181.62 644.302 181.503 644.05 181.29C641.563 179.25 638.983 178.617 636.31 179.39" stroke="#FFE430" stroke-width="2"/>
<path d="M423.01 307.55C423.657 304.983 423.833 302.883 423.54 301.25C423.526 301.167 423.488 301.091 423.431 301.03C423.373 300.969 423.299 300.927 423.217 300.909C423.136 300.89 423.05 300.897 422.972 300.928C422.895 300.958 422.828 301.011 422.78 301.08C421.81 302.45 420.78 303.18 420.22 304.82C419.3 307.527 418.49 310.263 417.79 313.03C417.01 316.12 417.54 320.05 416.64 324.02C416.28 325.65 416.57 327.34 416.08 329.02C415.553 330.847 415.267 332.043 415.22 332.61C414.82 337.323 414.66 342.043 414.74 346.77C414.84 352.74 416.32 359.23 417.12 365.49C417.127 365.53 417.297 366.36 417.63 367.98C418.16 370.48 417.85 373.37 417.65 375.75C417.517 377.303 416.993 378.767 416.08 380.14C413.287 384.34 409.833 388.363 405.72 392.21C403.893 393.917 402.197 394.067 400.63 392.66C400.35 392.413 400.19 392.103 400.15 391.73C399.803 388.577 399.663 385.417 399.73 382.25C399.73 382.23 399.817 382.063 399.99 381.75C400.057 381.63 400.147 381.587 400.26 381.62C400.587 381.72 400.767 381.6 400.8 381.26C401 379.28 400.94 377.483 400.62 375.87C399.9 372.2 401.39 370.52 401.89 367.65C402.36 364.96 402.41 361.76 400.33 359.65C399.637 358.95 398.947 358.24 398.26 357.52C398.038 357.298 397.882 357.021 397.81 356.72C397.11 353.76 396.913 351.517 397.22 349.99C397.65 347.82 399.99 348.56 401.26 348.33C403.38 347.957 404.637 346.67 405.03 344.47C405.087 344.15 405.074 343.821 404.993 343.505C404.912 343.189 404.764 342.894 404.56 342.64C402.347 339.907 401.943 336.777 403.35 333.25C404.24 331.01 403.72 319.59 401.66 317.25C401.565 317.137 401.348 316.669 401.043 315.921C400.738 315.173 400.363 314.19 399.98 313.13C398.76 309.77 399.84 304.87 401.29 300.96C402.59 297.45 401.97 294.74 401.68 291.24C401.49 288.91 402.23 286.67 402.57 284.35C402.78 282.92 401.97 282.11 401.97 281C401.977 279.267 401.687 277.583 401.1 275.95C401.087 275.923 401.097 275.903 401.13 275.89L401.51 275.75C401.577 275.723 401.603 275.677 401.59 275.61C401.317 274.597 401.263 273.56 401.43 272.5C401.463 272.28 401.42 272.077 401.3 271.89C401.133 271.643 401.153 271.403 401.36 271.17C401.607 270.89 401.717 270.563 401.69 270.19L401.39 265.73C401.37 265.397 401.427 265.077 401.56 264.77C401.68 264.49 401.833 264.263 402.02 264.09C402.267 263.857 402.417 263.57 402.47 263.23C403.03 259.897 404.96 257.947 408.26 257.38C408.6 257.32 408.903 257.18 409.17 256.96C413.86 253.09 414.98 248 415.33 242C415.44 240.03 416.15 238.99 417.45 237.68C417.677 237.454 417.818 237.157 417.85 236.84C418.01 235.287 418.48 234.253 419.26 233.74C420.307 233.053 421.33 232.34 422.33 231.6C423.163 230.98 423.593 230.197 423.62 229.25C423.693 226.903 424.28 224.837 425.38 223.05C427.14 220.19 428.81 216.9 429.97 214.99C430.59 213.977 431.093 213 431.48 212.06C431.873 211.113 432.38 210.167 433 209.22C433.58 208.327 434.077 207.377 434.49 206.37C434.603 206.077 434.76 205.81 434.96 205.57C435.687 204.683 435.603 203.943 434.71 203.35" stroke="#FFE430" stroke-width="2"/>
<path d="M506.34 525.51C522.19 509.84 534.15 494.14 548.09 473.49C554.17 464.5 563.99 451.01 571.17 439.2C571.643 438.427 572.873 437.03 574.86 435.01C578.71 431.09 583.53 430.12 588.87 430.91" stroke="#FFF5AE" stroke-width="2"/>
<path d="M588.87 430.91L617.16 431.23" stroke="#FFF7BF" stroke-width="2"/>
<path d="M617.16 431.23C618.74 431.83 620.24 432.293 621.66 432.62C627.62 434 629.52 440.08 631.49 445.25C634.16 452.24 638.25 461.49 641.09 466.91C641.82 468.29 642.1 470.12 642.91 471.63C644.583 474.73 646.24 477.84 647.88 480.96C649.82 484.66 656.14 494.86 660.23 495.68C662.643 496.167 666.817 496.303 672.75 496.09C679 495.87 683.84 488.67 684.93 483.03C685.51 480.037 685.13 477.117 683.79 474.27" stroke="#FFEF81" stroke-width="2"/>
<path d="M683.79 474.27C683.363 470.837 682.843 468.41 682.23 466.99C680.53 463.09 678.8 459.2 677.2 455.26C674.13 447.63 670.69 441.55 666.65 431.62C665.26 428.2 663.32 424.66 661.8 421.05C660.17 417.19 657.36 411.73 655.77 406.89C653.95 401.33 651.32 396.37 649.48 390.88C649.11 389.75 648.41 388.8 647.89 387.69C643.977 379.243 640.437 370.643 637.27 361.89C634.87 355.27 633.07 352.31 636.47 346.74C644.71 333.21 653.93 320.38 662.52 307.09C670.9 294.14 680.29 280.88 688.68 267.4C691.03 263.64 694.12 259.7 696.8 255.56C699.107 251.993 704.057 244.623 711.65 233.45" stroke="#FFF7BF" stroke-width="2"/>
<path d="M711.65 233.45C717.817 225.163 724.113 217.19 730.54 209.53C733.4 206.117 735.74 203.71 737.56 202.31C742.71 198.34 747.98 193.76 753.05 190.49C762.35 184.49 771.36 181.01 780.75 177.72C784.67 176.35 788.56 175.78 792.51 174.67C795.03 173.963 797.23 173.497 799.11 173.27C811.46 171.77 823.74 171.28 836.16 172.16C839.933 172.427 843.71 172.673 847.49 172.9C852.23 173.18 857.53 174.65 861.17 175.3C868.62 176.64 874.81 178.87 881.37 181.17C893.65 185.47 905.95 191.64 915.59 197.41C937.31 210.4 955.49 228.37 970.2 249.4C975.087 256.38 978.363 261.58 980.03 265C985.95 277.18 989.61 285.343 991.01 289.49C991.87 292.05 992.41 295.7 993.43 298.78C997.31 310.57 997.77 321.42 999.47 333C999.903 335.947 999.957 342.307 999.63 352.08C999.41 358.54 998.11 365.04 997.24 371.6C996.713 375.587 995.913 379.633 994.84 383.74C993.07 390.49 991.73 397.94 989.76 403.98C986.993 412.433 983.583 420.36 979.53 427.76C974.17 437.56 968.117 447.573 961.37 457.8C959.117 461.207 956.27 464.95 952.83 469.03C947.36 475.51 942.21 482.52 936.68 488.59C933.347 492.25 930.803 494.987 929.05 496.8C911.517 514.867 893.513 532.447 875.04 549.54C871.15 553.14 865 557.62 860.29 561.81C848.943 571.923 837.53 581.953 826.05 591.9C822.45 595.02 818.6 597.38 815.04 600.79C809.02 606.57 802.08 611.58 796.07 616.83C793.123 619.403 790.103 621.887 787.01 624.28C780.74 629.13 775.43 634.52 768.9 639.49C763.39 643.69 758.78 647.98 752.8 652.52C750.667 654.133 748.183 656.163 745.35 658.61C741.323 662.077 735.17 666.293 726.89 671.26C719.643 675.607 714.347 678.193 711 679.02C701.48 681.36 691.993 681.437 682.54 679.25C679.38 678.52 676.37 676.96 673.29 675.65C667.303 673.117 661.993 669.633 657.36 665.2C651.53 659.61 647.07 655.67 641.63 651.13C638.323 648.37 633.147 643.537 626.1 636.63C611.95 622.76 596.72 609.79 582.35 596.01C567.76 582.03 555.57 570.82 544.78 558.7C543.92 557.74 542.203 557.18 539.63 557.02C539.317 557 539.043 557.093 538.81 557.3C530.75 564.34 523.49 569.7 515.32 578.65C512.92 581.28 511.36 583.66 514.62 586.37C519.2 590.19 523.33 593.497 527.01 596.29C531.71 599.86 535.49 603.71 539.54 607.72C549.19 617.25 559.94 625.47 569.65 634.97C576.07 641.26 582.36 648.07 589.45 653.59C603.31 664.39 615.36 677.68 628.62 689.22C637.91 697.32 646.25 704.72 657.09 710.85C668 717.02 681.67 719.47 694.08 719.13C698.21 719.02 702.4 717.88 706.57 717.02C710.33 716.24 713.403 715.45 715.79 714.65C729.28 710.14 738.76 702.17 749.4 694.14C754.313 690.433 759.35 686.45 764.51 682.19C776.78 672.07 788.12 662.74 801.08 651.56C804.793 648.353 809.327 644.56 814.68 640.18C818.65 636.94 824.92 630.43 831.66 625.38C836.86 621.47 841.6 616.96 846.73 612.93C856.3 605.42 864.34 596.68 873.79 589.18C880.83 583.58 886.85 577.48 893.17 571.35C899.93 564.8 907.63 559.3 914.37 552.82C932.723 535.187 946.083 521.73 954.45 512.45C958.297 508.177 966.237 498.423 978.27 483.19C983.47 476.62 988.05 469.15 993.21 461.72C1000.88 450.707 1007.59 438.897 1013.36 426.29C1015.93 420.68 1017.97 414.66 1020.03 408.7C1021.32 404.93 1022.02 400.19 1023.56 395.8C1025.18 391.207 1026.29 386.193 1026.89 380.76C1028.04 370.36 1028.72 359.94 1028.93 349.5C1029.2 335.68 1027.91 320.55 1026.92 306.16C1026.73 303.473 1026.49 301.59 1026.18 300.51C1024.3 293.903 1022.74 287.223 1021.49 280.47C1020.51 275.2 1017.9 270.16 1016.05 265.14C1014.07 259.77 1011.1 253.06 1008.18 247.59C1006.16 243.82 1004.48 239.73 1002.41 236.25C999.61 231.577 996.713 226.96 993.72 222.4C992.29 220.22 990.4 218.04 988.8 215.77C987.307 213.657 986.057 212.02 985.05 210.86C970.54 194.18 954.33 178.01 935.71 165.79C925.51 159.09 910.44 150.88 896.47 145.11C894.31 144.22 891.85 143.67 889.54 142.78C886.38 141.57 883.25 141.11 880.07 139.99C876.64 138.79 873.28 138.22 869.89 137.12C867.23 136.26 864.78 135.97 862.14 135.74C859.25 135.48 857.1 134.09 854.25 133.99C849.417 133.823 844.583 133.647 839.75 133.46C835.68 133.31 830.44 131.57 826.04 131.67C822.793 131.75 818.863 132.193 814.25 133C810.163 133.713 803.997 133.96 795.75 133.74C793.4 133.68 788.61 135.62 785.35 136.1C778.01 137.16 772.04 139.59 764.53 141.84C760.97 142.907 756.087 144.857 749.88 147.69C734.02 154.92 720.24 165.1 708.17 177.67C691.79 194.74 679.99 210.07 665.8 230.01C661.64 235.87 658.57 242.25 654.24 248.22C636.12 273.23 620.77 298.45 603.97 322C598.12 330.19 592.79 339.93 587.67 347.17C576.277 363.283 565.213 379.62 554.48 396.18C549.72 403.52 546.053 409.087 543.48 412.88C527.19 436.91 511.05 466.84 479.56 472.91C474.36 473.91 469.09 474.44 463.75 474.5C447.003 474.693 430.313 474.697 413.68 474.51C413.508 474.507 413.338 474.551 413.189 474.638C413.041 474.726 412.919 474.852 412.838 475.005C412.756 475.158 412.718 475.33 412.727 475.504C412.736 475.678 412.793 475.846 412.89 475.99C416.81 481.84 422.45 488.19 425.82 492.55C435.01 504.43 441.29 512.34 451.65 519.62C458.61 524.5 463.55 528.49 469.42 533.21C474.2 537.04 478.82 541.85 483.67 545.81C484.563 546.537 485.417 546.493 486.23 545.68L506.34 525.51" stroke="#FFEF81" stroke-width="2"/>
<path d="M711.65 233.45C710.843 232.07 711.237 230.487 712.83 228.7C716.1 225.01 719.06 221.03 722.07 217.16" stroke="#FFE641" stroke-width="2"/>
<path d="M722.07 217.16C726.61 210.813 729.783 206.957 731.59 205.59C733.817 203.897 735.953 202.1 738 200.2C739.773 198.553 741.26 197.25 742.46 196.29C746.18 193.33 750.03 189.93 753.69 187.9C753.943 187.76 754.157 187.577 754.33 187.35C754.517 187.103 754.747 186.927 755.02 186.82C758.19 185.59 761.23 183.61 764.11 182.45C766.823 181.363 769.537 180.263 772.25 179.15C774.12 178.39 776.96 176.62 779.73 176.05C781.51 175.68 782.84 174.72 784.55 174.22C786.2 173.74 787.66 172.53 789.62 172.6C789.933 172.607 790.223 172.53 790.49 172.37C791.57 171.73 792.61 172.46 793.88 171.51C794.127 171.323 794.4 171.2 794.7 171.14C799.093 170.26 803.523 169.833 807.99 169.86C808.237 169.86 808.61 169.697 809.11 169.37C809.37 169.197 809.66 169.11 809.98 169.11C811.68 169.12 812.91 168.15 814.39 168.01C818.417 167.643 822.453 167.53 826.5 167.67C829.15 167.76 831.87 166.93 834.19 166.77C835.71 166.663 837.31 166.513 838.99 166.32C839.252 166.292 839.495 166.167 839.669 165.969C839.843 165.77 839.936 165.514 839.93 165.25C839.89 163.34 841.41 161.4 839.67 159.8C839.423 159.573 839.223 159.307 839.07 159C838.09 157.1 837.15 155.17 835.15 154.18C834.377 153.793 833.58 153.463 832.76 153.19C829.52 152.11 826.41 150.34 823.39 148.74C823.17 148.627 822.917 148.563 822.63 148.55C822.263 148.53 822.003 148.487 821.85 148.42C816.963 146.153 812.067 143.903 807.16 141.67C806.972 141.585 806.758 141.564 806.55 141.61C805.62 141.82 804.67 141.02 803.47 141.02C803.183 141.02 802.927 140.937 802.7 140.77C801.07 139.63 798.65 139.97 795.84 140.13C795.627 140.143 795.423 140.11 795.23 140.03C794.923 139.903 794.63 139.923 794.35 140.09C794.137 140.217 793.903 140.293 793.65 140.32C791.8 140.48 790.51 140.77 788.44 140.64C786.15 140.5 784.63 141.41 782.24 140.2C781.9 140.027 781.56 140.027 781.22 140.2L779.77 140.94C779.477 141.087 779.167 141.147 778.84 141.12C778.02 141.06 777.26 141.227 776.56 141.62C776.3 141.767 776.023 141.837 775.73 141.83C773.203 141.777 770.873 142.38 768.74 143.64C767.07 144.62 765.33 145.12 763.65 146.02C763.383 146.163 763.083 146.219 762.79 146.18C759.7 145.77 757.02 147.57 755.07 148.21C753.39 148.763 751.7 149.527 750 150.5C746.8 152.33 742.72 153.46 739.74 154.96C737.807 155.933 735.893 156.937 734 157.97C732.72 158.66 731.68 159.9 730.32 160.58C729.06 161.207 728.143 161.797 727.57 162.35C724.46 165.36 721.57 168.08 717.84 170.35C716.673 171.057 715.617 171.917 714.67 172.93C712.023 175.77 709.33 178.56 706.59 181.3C704.36 183.53 702.36 186.38 700.03 188.78C699.95 188.853 699.9 188.94 699.88 189.04C699.847 189.193 699.777 189.327 699.67 189.44L691.65 198.02" stroke="#FFE430" stroke-width="2"/>
<path d="M691.65 198.02C687.35 203.667 682.973 209.333 678.52 215.02C677.17 216.73 676.39 218.64 674.95 220.38C671.103 225.033 667.477 230.27 664.07 236.09C660.703 241.823 656.903 247.54 652.67 253.24C647.81 259.773 644.307 264.673 642.16 267.94C634.707 279.293 627.237 290.633 619.75 301.96C615.78 307.97 609.93 315.66 605.45 322.9C605.063 323.52 604.163 324.633 602.75 326.24C601.543 327.613 599.743 330.463 597.35 334.79C593.74 341.32 589.55 346.97 585.52 353.05C584.25 354.96 582.19 357.08 580.92 359.49C580.58 360.13 580.2 360.72 579.78 361.26C576.91 364.94 574.66 368.93 572.16 372.85C570.27 375.82 567.96 378.62 566.03 381.55C562.537 386.823 559.057 392.103 555.59 397.39C552.78 401.69 550.24 406.13 547.52 410.49C546.77 411.71 545.68 412.81 544.59 414.66C543.92 415.79 542.94 416.22 542.33 417.36C540.68 420.44 538.36 423.62 536.76 426.23C534.047 430.637 531.107 434.887 527.94 438.98C526.19 441.24 524.53 444.03 523.12 445.88C520.933 448.753 516.883 453.343 510.97 459.65" stroke="#FFE641" stroke-width="2"/>
<path d="M510.97 459.65C509.95 460.65 508.76 461.19 507.78 462.11C507.04 462.803 506.217 463.383 505.31 463.85C504.07 464.48 503.46 465.56 502.52 466.11C498.37 468.51 494.91 471.24 490.3 472.7C485.89 474.1 481.99 475.6 477.16 476.36C473.41 476.95 469.88 478.45 466.28 478.86C464.72 479.04 462.21 479.6 460.72 479.34C460.44 479.287 460.22 479.353 460.06 479.54C459.867 479.767 459.62 479.867 459.32 479.84C458.48 479.76 457.82 479.793 457.34 479.94C456.333 480.247 456.1 480.85 456.64 481.75L459.8 487.05C459.853 487.143 459.88 487.247 459.88 487.36L459.89 487.76C459.89 487.913 459.963 488 460.11 488.02C460.783 488.113 461.123 488.513 461.13 489.22C461.13 489.384 461.168 489.546 461.241 489.692C461.314 489.838 461.42 489.964 461.55 490.06C462.75 490.96 463.413 492.147 463.54 493.62C463.553 493.76 463.62 493.797 463.74 493.73L463.98 493.6C464.24 493.46 464.45 493.517 464.61 493.77C466.07 496.18 469.95 501.66 470.24 504.24C470.241 504.262 470.248 504.282 470.261 504.3C470.274 504.317 470.292 504.33 470.312 504.338C470.332 504.345 470.354 504.347 470.375 504.342C470.396 504.337 470.415 504.326 470.43 504.31C470.497 504.243 470.563 504.177 470.63 504.11C470.77 503.977 470.88 503.997 470.96 504.17C472.43 507.21 474.84 510.26 476.27 512.54C477.497 514.5 478.747 516.447 480.02 518.38C480.733 519.467 482.163 521.287 484.31 523.84C486.577 526.553 488.453 529.54 489.94 532.8C490.044 533.022 490.228 533.197 490.453 533.288C490.678 533.379 490.927 533.38 491.15 533.29C491.517 533.15 491.763 532.963 491.89 532.73C491.99 532.543 492.137 532.49 492.33 532.57C492.817 532.763 493.22 532.757 493.54 532.55C495.7 531.16 497.55 530.34 499.23 528.2C500.57 526.507 502.13 525.017 503.91 523.73C504.199 523.522 504.549 523.417 504.904 523.432C505.259 523.446 505.599 523.579 505.87 523.81C506.377 524.243 506.533 524.81 506.34 525.51" stroke="#FFE430" stroke-width="2"/>
<path d="M683.79 474.27C683.423 477.897 683.07 481.273 682.73 484.4C682.637 485.22 682.383 486 681.97 486.74C680.86 488.72 680.26 490.48 678.46 491.84C675.62 493.98 672.39 494.863 668.77 494.49C665.73 494.19 663.97 494.15 661.43 494.17C661.097 494.17 660.8 494.067 660.54 493.86C656.44 490.6 652.61 486.31 650.05 481.63C647.003 476.057 644.297 470.32 641.93 464.42C641.337 462.933 640.373 460.88 639.04 458.26C636.61 453.45 633.53 444.54 629.66 437.33C628.647 435.45 627.7 434.097 626.82 433.27C624.087 430.703 620.867 430.023 617.16 431.23" stroke="#FFE641" stroke-width="2"/>
<path d="M588.87 430.91C589.057 429.403 588.293 428.617 586.58 428.55C586.34 428.543 586.14 428.457 585.98 428.29C585.76 428.063 585.493 427.933 585.18 427.9C582.873 427.7 580.637 428.037 578.47 428.91C578.29 428.983 578.18 429.097 578.14 429.25C578.087 429.45 577.957 429.573 577.75 429.62C573.06 430.63 569.65 437.39 567.09 441.1C566.12 442.51 564.16 444.47 563.27 446.66C562.397 448.8 561.747 450.17 561.32 450.77C560.333 452.143 559.253 453.45 558.08 454.69C557.864 454.925 557.716 455.212 557.65 455.52C557.443 456.567 556.863 457.363 555.91 457.91C555.557 458.117 555.333 458.417 555.24 458.81C554.907 460.183 554.097 461.14 552.81 461.68C552.676 461.733 552.557 461.817 552.461 461.925C552.366 462.032 552.297 462.161 552.26 462.3C551.83 463.79 550.15 466.39 549.1 467.49C547.18 469.49 545.53 471.683 544.15 474.07C542.4 477.12 540.27 479.24 538.26 481.94C535.91 485.09 534.16 489.93 530.26 493.32C530.093 493.467 529.96 493.44 529.86 493.24L529.5 492.53C529.413 492.363 529.297 492.337 529.15 492.45C528.963 492.603 528.767 492.663 528.56 492.63C528.407 492.603 528.24 492.467 528.06 492.22C527.547 491.533 526.61 490.713 525.25 489.76C523.717 488.687 521.963 486.437 519.99 483.01C516.857 477.57 513.603 472.207 510.23 466.92C510.043 466.627 509.927 466.313 509.88 465.98C509.82 465.56 509.59 465.227 509.19 464.98C508.937 464.82 508.777 464.593 508.71 464.3L508.59 463.74C508.53 463.433 508.64 463.22 508.92 463.1C510.153 462.573 510.837 461.423 510.97 459.65" stroke="#FFEC6E" stroke-width="2"/>
<path d="M722.07 217.16L722.27 216.12C722.323 215.847 722.217 215.75 721.95 215.83C721.763 215.89 721.597 215.89 721.45 215.83C721.143 215.71 721.123 215.547 721.39 215.34C721.663 215.133 721.697 214.84 721.49 214.46C721.357 214.233 721.17 214.077 720.93 213.99C718.81 213.2 715.03 211.35 713.61 209.59C713.017 208.87 712.407 208.147 711.78 207.42C711.571 207.178 711.302 206.995 711 206.89C710.03 206.57 709.67 205.65 708.95 205.19C706.17 203.41 703.17 202.76 700.39 201.08C698.95 200.213 697.443 199.48 695.87 198.88C695.483 198.733 695.137 198.373 694.83 197.8C694.69 197.52 694.467 197.413 694.16 197.48L691.65 198.02" stroke="#FFEC6E" stroke-width="2"/>
<path d="M796.43 286.7C794.32 286.88 792.68 286.87 790.61 287.71C789.077 288.323 787.5 288.787 785.88 289.1C782.8 289.69 778.67 291.44 775.98 292.87C765.38 298.49 755.52 303.26 746.36 311.82C736.94 320.62 731.65 327.31 724.73 338.26C723.93 339.53 723.51 341.56 722.35 343.14C720.41 345.78 719.027 348.62 718.2 351.66" stroke="#FFEF81" stroke-width="2"/>
<path d="M718.2 351.66C717.233 354.073 716.283 356.473 715.35 358.86C713.78 362.93 713.29 367.53 711.95 371.98C711.35 373.987 711.023 375.873 710.97 377.64C710.823 382.433 710.613 387.22 710.34 392C709.747 402.447 710.737 412.32 713.31 421.62" stroke="#FFF7BF" stroke-width="2"/>
<path d="M713.31 421.62C713.89 423.69 713.92 425.45 714.89 427.35C716.67 430.843 718.093 434.48 719.16 438.26C719.89 440.81 722.59 443.89 723.91 447.06C724.82 449.25 726.97 451.75 727.74 453C729.03 455.1 730.2 457.15 731.77 459.03C741.14 470.27 752.46 480.13 765.25 487.29C771.4 490.73 776.18 492.24 781.79 494.37C783.783 495.123 785.647 495.647 787.38 495.94C791.48 496.64 795.38 498.23 799.28 498.6C805.307 499.167 811.267 499.37 817.16 499.21" stroke="#FFF5AE" stroke-width="2"/>
<path d="M817.16 499.21C824.233 499.303 829.847 498.923 834 498.07C837.933 497.263 843.367 495.51 850.3 492.81C856.02 490.583 861.51 487.313 866.77 483C872.6 478.23 875.87 473.65 877.21 466.49C878.36 460.34 871.41 450.5 866.12 447.66C860.65 444.72 856.04 446.62 851.18 449.64C844.393 453.867 837.147 457.16 829.44 459.52" stroke="#FFEF81" stroke-width="2"/>
<path d="M829.44 459.52C826.887 460.66 823.907 461.273 820.5 461.36C814.14 461.52 807.6 462.05 802.14 460.17C798.11 458.79 793.74 457.77 790.33 456.24C780.38 451.78 770.59 444.9 764.24 435.89C761.14 431.5 757.89 428.31 755.25 423C754.1 420.69 753.59 417.48 752.01 414.68" stroke="#FFF5AE" stroke-width="2"/>
<path d="M752.01 414.68C751.237 411.92 750.483 408.99 749.75 405.89C747.85 397.84 747.7 387.21 750.08 379.25C750.61 377.48 750.83 375.88 751.14 374.15C751.63 371.38 752.87 368.8 753.68 366.04C756.29 357.14 765.74 346.7 772.53 340.52C782.757 331.193 794.827 326.273 808.74 325.76C815.14 325.52 821.65 325 827.66 326.38C834.013 327.827 839.953 330.357 845.48 333.97C850.627 337.337 853.96 339.257 855.48 339.73C861.06 341.46 866.27 338.99 870.11 335.09C875.26 329.87 876.21 322.18 874.61 315.26C872.64 306.72 861.42 300.31 854.99 295.89C853.04 294.56 850.71 294.06 848.66 292.52C847.34 291.53 846.38 291.33 844.88 290.96C842.75 290.45 841.25 289.08 838.91 288.82C836.12 288.51 833.86 287.26 831.02 286.9C827.407 286.44 823.837 285.757 820.31 284.85C812.27 282.78 804.4 285.66 796.43 286.7" stroke="#FFF7BF" stroke-width="2"/>
<path d="M752.01 414.68C751.483 416.407 751.61 418.597 752.39 421.25C753.45 424.857 755.127 427.87 757.42 430.29C758.68 431.623 759.623 432.813 760.25 433.86C761.043 435.187 761.873 436.49 762.74 437.77C763.067 438.25 763.91 439.25 765.27 440.77C765.983 441.577 766.803 442.613 767.73 443.88C768.663 445.147 770.197 446.47 772.33 447.85C772.428 447.915 772.507 448.009 772.56 448.12C772.853 448.76 773.3 449.173 773.9 449.36C774.18 449.44 774.41 449.593 774.59 449.82C775.73 451.26 777.69 451.85 779.65 453.05C781.07 453.91 782.87 455.7 784.97 456.44C786.07 456.84 787.413 457.653 789 458.88C790.34 459.913 792.073 460.463 794.2 460.53C794.497 460.536 794.781 460.646 795 460.84C797.187 462.733 799.623 464.217 802.31 465.29C802.623 465.417 802.89 465.603 803.11 465.85C803.65 466.437 804.307 466.687 805.08 466.6C805.413 466.56 805.71 466.647 805.97 466.86L807.49 468.11C808.343 468.81 808.307 469.467 807.38 470.08C806.493 470.66 805.543 471.313 804.53 472.04C804.337 472.173 804.31 472.307 804.45 472.44C804.523 472.513 804.55 472.6 804.53 472.7C804.49 472.867 804.423 472.92 804.33 472.86C804.177 472.773 804.043 472.793 803.93 472.92C801.97 475.093 799.75 476.96 797.27 478.52C793.363 480.973 789.353 483.233 785.24 485.3C782.61 486.62 778.38 485.71 775.47 485.99C773.91 486.13 772.68 485.51 771.02 485.65C770.707 485.677 770.417 485.607 770.15 485.44C768.517 484.447 766.783 483.72 764.95 483.26C763.62 482.93 762.67 482.14 761.4 481.67C758.37 480.56 755.99 478.83 753.73 476.56C752.983 475.82 752.123 475.22 751.15 474.76C750.983 474.68 750.897 474.547 750.89 474.36C750.89 474.247 750.877 474.14 750.85 474.04C750.803 473.88 750.687 473.737 750.5 473.61C748.053 471.923 745.68 470.14 743.38 468.26C742.86 467.84 742.49 466.97 741.74 466.67C741.467 466.557 741.227 466.397 741.02 466.19L735.19 460.28C735.017 460.107 734.923 459.897 734.91 459.65C734.86 459.03 731.6 455.8 730.92 454.48C729.13 450.99 726.57 448.22 724.83 444.83C724.123 443.457 723.387 442.1 722.62 440.76C719.33 434.96 717.35 428.36 714.84 422.2C714.707 421.873 714.507 421.697 714.24 421.67C714.013 421.643 713.703 421.627 713.31 421.62" stroke="#FFEC6E" stroke-width="2"/>
<path d="M718.2 351.66C718.267 352.093 718.38 352.393 718.54 352.56C718.84 352.867 719.077 352.827 719.25 352.44C720.61 349.427 722.19 346.533 723.99 343.76C725.22 341.86 725.58 339.87 726.9 337.97C729.67 333.97 732.07 329.61 735.23 326.1C742.74 317.74 750.95 309.18 760.41 303.37C768.92 298.15 778.62 292.58 788.44 290.32C790.12 289.93 792.53 289.09 794.73 288.91C795.323 288.857 795.8 288.703 796.16 288.45C797.167 287.743 797.257 287.16 796.43 286.7" stroke="#FFE641" stroke-width="2"/>
<path d="M829.44 459.52C829.427 459.767 829.36 460.023 829.24 460.29C829.113 460.57 829.193 460.753 829.48 460.84C830.147 461.04 830.737 461.053 831.25 460.88C838.53 458.47 845.91 457.02 852.2 452.12C855.75 449.35 858.51 448.28 862.68 449.61C864.81 450.3 866.62 452.56 868.45 454.03C868.69 454.217 868.75 454.453 868.63 454.74C868.57 454.887 868.623 454.927 868.79 454.86C868.862 454.833 868.94 454.825 869.016 454.84C869.092 454.854 869.163 454.888 869.22 454.94C871.767 457.213 873.483 459.403 874.37 461.51C875.93 465.24 874.58 468.02 872.96 471.44C872.213 473.013 871.433 474.57 870.62 476.11C869.13 478.94 864.94 480.09 862.33 481.73C862.043 481.91 861.733 482.013 861.4 482.04C860.36 482.12 859.477 482.537 858.75 483.29C858.49 483.557 858.183 483.74 857.83 483.84C857.183 484.033 856.693 484.413 856.36 484.98C856.158 485.306 855.866 485.564 855.52 485.72C854.607 486.12 853.803 486.67 853.11 487.37C852.857 487.617 852.557 487.77 852.21 487.83C850.58 488.09 849.53 489.34 848.2 489.8C843.2 491.53 838.3 493.41 833.03 494.36C829.4 495.01 825.97 496.29 822.25 496.53C820.577 496.63 819.52 496.897 819.08 497.33C818.48 497.923 817.84 498.55 817.16 499.21" stroke="#FFE430" stroke-width="2"/>
<path d="M924.91 392.77C924.91 392.71 924.922 392.65 924.945 392.594C924.968 392.538 925.002 392.487 925.045 392.445C925.087 392.402 925.138 392.368 925.194 392.345C925.25 392.322 925.31 392.31 925.37 392.31L964.13 392.26C964.252 392.26 964.369 392.212 964.455 392.125C964.542 392.039 964.59 391.922 964.59 391.8L964.61 370.23C964.61 370.108 964.562 369.991 964.475 369.905C964.389 369.818 964.272 369.77 964.15 369.77L925.37 369.76C925.31 369.76 925.25 369.748 925.194 369.725C925.138 369.702 925.087 369.668 925.045 369.625C925.002 369.583 924.968 369.532 924.945 369.476C924.922 369.42 924.91 369.36 924.91 369.3L924.88 330.25C924.88 330.128 924.832 330.011 924.745 329.925C924.659 329.838 924.542 329.79 924.42 329.79H902.89C902.768 329.79 902.651 329.838 902.565 329.925C902.478 330.011 902.43 330.128 902.43 330.25L902.38 369.31C902.38 369.37 902.368 369.43 902.345 369.486C902.322 369.542 902.288 369.593 902.245 369.635C902.203 369.678 902.152 369.712 902.096 369.735C902.04 369.758 901.98 369.77 901.92 369.77H863.2C863.078 369.77 862.961 369.818 862.875 369.905C862.788 369.991 862.74 370.108 862.74 370.23V391.82C862.74 391.942 862.788 392.059 862.875 392.145C862.961 392.232 863.078 392.28 863.2 392.28H901.96C902.082 392.28 902.199 392.328 902.285 392.415C902.372 392.501 902.42 392.618 902.42 392.74L902.41 431.3C902.41 431.422 902.458 431.539 902.545 431.625C902.631 431.712 902.748 431.76 902.87 431.76H924.45C924.572 431.76 924.689 431.712 924.775 431.625C924.862 431.539 924.91 431.422 924.91 431.3V392.77Z" stroke="#FFEF81" stroke-width="2"/>
<path d="M606.08 398.04C604.693 397.213 602.797 397.11 600.39 397.73C599.15 398.04 598.13 399.07 597.55 400.06C595.48 403.61 593.55 407.42 591.02 410.66C590.167 411.76 589.457 412.793 588.89 413.76" stroke="#FFF7BF" stroke-width="2"/>
<path d="M588.89 413.76C586.61 414.74 585.963 416.887 586.95 420.2C587.043 420.507 587.227 420.737 587.5 420.89C589.88 422.243 592.053 422.42 594.02 421.42" stroke="#FFE641" stroke-width="2"/>
<path d="M594.02 421.42C597.227 422.113 599.803 422.297 601.75 421.97C604.79 421.463 607.607 421.027 610.2 420.66" stroke="#FFF7BF" stroke-width="2"/>
<path d="M610.2 420.66C610.6 421.807 612.13 421.82 614.79 420.7C621.34 417.96 609.26 400.34 606.93 396.99C606.879 396.918 606.808 396.863 606.725 396.833C606.642 396.803 606.552 396.799 606.467 396.822C606.381 396.845 606.305 396.894 606.249 396.961C606.192 397.029 606.158 397.112 606.15 397.2L606.08 398.04" stroke="#FFE641" stroke-width="2"/>
<path d="M610.2 420.66C613.853 419.887 615.457 417.93 615.01 414.79C614.67 412.42 612.8 410.46 611.46 408.37C609.55 405.39 608.68 401.46 606.08 398.04" stroke="#FFEF81" stroke-width="2"/>
<path d="M594.02 421.42C589.83 419.53 588.74 418.69 588.89 413.76" stroke="#FFEF81" stroke-width="2"/>
<path d="M0 0H1414V768H0V0ZM434.71 203.35C427.54 211.95 421.12 221.15 414.76 230.32C413.28 232.45 412.04 234.73 410.73 237C408.16 241.41 403.79 245.91 402.3 250.27C401.02 254.04 399.48 257.39 398.54 261.34C397.573 265.367 396.317 269.3 394.77 273.14C392.69 278.29 391.75 283.05 390.44 289.3C389.77 292.51 388.4 295.67 387.78 298.6C385.9 307.56 385.42 316.09 384.63 328.26C384.04 337.31 385.4 346.77 385.51 356.05C385.55 358.99 386.25 361.46 386.95 364.23C387.99 368.37 388.37 372.88 389.45 377.19C390.97 383.28 390.22 389.34 392.01 395.23C392.67 397.42 394.68 408.52 399.05 405.83C400.19 405.13 401.373 404.06 402.6 402.62C407.607 396.753 412.69 390.96 417.85 385.24C423.59 378.88 421.19 374.82 420.84 368C420.193 355.227 420.097 340.727 420.55 324.5C420.67 320.347 421.49 314.697 423.01 307.55C424.74 301.19 426.05 294.39 428.01 288.57C440.55 251.48 464.47 219.67 497.59 198.1C507.79 191.45 515.88 187.59 527.76 182.78C550.67 173.5 572.64 170.99 597.05 172.22C602.417 172.493 607.7 173.047 612.9 173.88C619.28 174.907 624.48 176.04 628.5 177.28C632.227 178.433 634.83 179.137 636.31 179.39C639.58 180.88 642.96 181.94 646.08 183.48C650.073 185.433 654.17 187.153 658.37 188.64C659.343 188.987 660.237 188.797 661.05 188.07C669.743 180.243 677.4 171.863 684.02 162.93C686.17 160.03 691.39 156.18 685.6 153.11C678.447 149.31 672.323 146.713 667.23 145.32C664.997 144.713 663.097 144.133 661.53 143.58C657.78 142.26 654.92 141.54 651.61 140.43C648.45 139.38 645.14 138.91 641.9 137.85C637.37 136.37 632.94 135.84 628.4 134.79C622.92 133.52 616.88 133.2 611.15 131.66C610.63 131.52 609.89 131.6 609.3 131.38C598.81 130.19 587.58 130.73 577 130.76C571.14 130.77 565.56 133.75 560.5 133.64C554.26 133.5 548.68 135.06 542.81 137.26C533.73 140.67 525.11 143.87 515.97 148.16C505.78 152.92 494.64 156.79 485.31 162.34C481.043 164.873 474.81 168.787 466.61 174.08C454.52 181.89 444.09 192.59 434.71 203.35ZM506.34 525.51C522.19 509.84 534.15 494.14 548.09 473.49C554.17 464.5 563.99 451.01 571.17 439.2C571.643 438.427 572.873 437.03 574.86 435.01C578.71 431.09 583.53 430.12 588.87 430.91L617.16 431.23C618.74 431.83 620.24 432.293 621.66 432.62C627.62 434 629.52 440.08 631.49 445.25C634.16 452.24 638.25 461.49 641.09 466.91C641.82 468.29 642.1 470.12 642.91 471.63C644.583 474.73 646.24 477.84 647.88 480.96C649.82 484.66 656.14 494.86 660.23 495.68C662.643 496.167 666.817 496.303 672.75 496.09C679 495.87 683.84 488.67 684.93 483.03C685.51 480.037 685.13 477.117 683.79 474.27C683.363 470.837 682.843 468.41 682.23 466.99C680.53 463.09 678.8 459.2 677.2 455.26C674.13 447.63 670.69 441.55 666.65 431.62C665.26 428.2 663.32 424.66 661.8 421.05C660.17 417.19 657.36 411.73 655.77 406.89C653.95 401.33 651.32 396.37 649.48 390.88C649.11 389.75 648.41 388.8 647.89 387.69C643.977 379.243 640.437 370.643 637.27 361.89C634.87 355.27 633.07 352.31 636.47 346.74C644.71 333.21 653.93 320.38 662.52 307.09C670.9 294.14 680.29 280.88 688.68 267.4C691.03 263.64 694.12 259.7 696.8 255.56C699.107 251.993 704.057 244.623 711.65 233.45C717.817 225.163 724.113 217.19 730.54 209.53C733.4 206.117 735.74 203.71 737.56 202.31C742.71 198.34 747.98 193.76 753.05 190.49C762.35 184.49 771.36 181.01 780.75 177.72C784.67 176.35 788.56 175.78 792.51 174.67C795.03 173.963 797.23 173.497 799.11 173.27C811.46 171.77 823.74 171.28 836.16 172.16C839.933 172.427 843.71 172.673 847.49 172.9C852.23 173.18 857.53 174.65 861.17 175.3C868.62 176.64 874.81 178.87 881.37 181.17C893.65 185.47 905.95 191.64 915.59 197.41C937.31 210.4 955.49 228.37 970.2 249.4C975.087 256.38 978.363 261.58 980.03 265C985.95 277.18 989.61 285.343 991.01 289.49C991.87 292.05 992.41 295.7 993.43 298.78C997.31 310.57 997.77 321.42 999.47 333C999.903 335.947 999.957 342.307 999.63 352.08C999.41 358.54 998.11 365.04 997.24 371.6C996.713 375.587 995.913 379.633 994.84 383.74C993.07 390.49 991.73 397.94 989.76 403.98C986.993 412.433 983.583 420.36 979.53 427.76C974.17 437.56 968.117 447.573 961.37 457.8C959.117 461.207 956.27 464.95 952.83 469.03C947.36 475.51 942.21 482.52 936.68 488.59C933.347 492.25 930.803 494.987 929.05 496.8C911.517 514.867 893.513 532.447 875.04 549.54C871.15 553.14 865 557.62 860.29 561.81C848.943 571.923 837.53 581.953 826.05 591.9C822.45 595.02 818.6 597.38 815.04 600.79C809.02 606.57 802.08 611.58 796.07 616.83C793.123 619.403 790.103 621.887 787.01 624.28C780.74 629.13 775.43 634.52 768.9 639.49C763.39 643.69 758.78 647.98 752.8 652.52C750.667 654.133 748.183 656.163 745.35 658.61C741.323 662.077 735.17 666.293 726.89 671.26C719.643 675.607 714.347 678.193 711 679.02C701.48 681.36 691.993 681.437 682.54 679.25C679.38 678.52 676.37 676.96 673.29 675.65C667.303 673.117 661.993 669.633 657.36 665.2C651.53 659.61 647.07 655.67 641.63 651.13C638.323 648.37 633.147 643.537 626.1 636.63C611.95 622.76 596.72 609.79 582.35 596.01C567.76 582.03 555.57 570.82 544.78 558.7C543.92 557.74 542.203 557.18 539.63 557.02C539.317 557 539.043 557.093 538.81 557.3C530.75 564.34 523.49 569.7 515.32 578.65C512.92 581.28 511.36 583.66 514.62 586.37C519.2 590.19 523.33 593.497 527.01 596.29C531.71 599.86 535.49 603.71 539.54 607.72C549.19 617.25 559.94 625.47 569.65 634.97C576.07 641.26 582.36 648.07 589.45 653.59C603.31 664.39 615.36 677.68 628.62 689.22C637.91 697.32 646.25 704.72 657.09 710.85C668 717.02 681.67 719.47 694.08 719.13C698.21 719.02 702.4 717.88 706.57 717.02C710.33 716.24 713.403 715.45 715.79 714.65C729.28 710.14 738.76 702.17 749.4 694.14C754.313 690.433 759.35 686.45 764.51 682.19C776.78 672.07 788.12 662.74 801.08 651.56C804.793 648.353 809.327 644.56 814.68 640.18C818.65 636.94 824.92 630.43 831.66 625.38C836.86 621.47 841.6 616.96 846.73 612.93C856.3 605.42 864.34 596.68 873.79 589.18C880.83 583.58 886.85 577.48 893.17 571.35C899.93 564.8 907.63 559.3 914.37 552.82C932.723 535.187 946.083 521.73 954.45 512.45C958.297 508.177 966.237 498.423 978.27 483.19C983.47 476.62 988.05 469.15 993.21 461.72C1000.88 450.707 1007.59 438.897 1013.36 426.29C1015.93 420.68 1017.97 414.66 1020.03 408.7C1021.32 404.93 1022.02 400.19 1023.56 395.8C1025.18 391.207 1026.29 386.193 1026.89 380.76C1028.04 370.36 1028.72 359.94 1028.93 349.5C1029.2 335.68 1027.91 320.55 1026.92 306.16C1026.73 303.473 1026.49 301.59 1026.18 300.51C1024.3 293.903 1022.74 287.223 1021.49 280.47C1020.51 275.2 1017.9 270.16 1016.05 265.14C1014.07 259.77 1011.1 253.06 1008.18 247.59C1006.16 243.82 1004.48 239.73 1002.41 236.25C999.61 231.577 996.713 226.96 993.72 222.4C992.29 220.22 990.4 218.04 988.8 215.77C987.307 213.657 986.057 212.02 985.05 210.86C970.54 194.18 954.33 178.01 935.71 165.79C925.51 159.09 910.44 150.88 896.47 145.11C894.31 144.22 891.85 143.67 889.54 142.78C886.38 141.57 883.25 141.11 880.07 139.99C876.64 138.79 873.28 138.22 869.89 137.12C867.23 136.26 864.78 135.97 862.14 135.74C859.25 135.48 857.1 134.09 854.25 133.99C849.417 133.823 844.583 133.647 839.75 133.46C835.68 133.31 830.44 131.57 826.04 131.67C822.793 131.75 818.863 132.193 814.25 133C810.163 133.713 803.997 133.96 795.75 133.74C793.4 133.68 788.61 135.62 785.35 136.1C778.01 137.16 772.04 139.59 764.53 141.84C760.97 142.907 756.087 144.857 749.88 147.69C734.02 154.92 720.24 165.1 708.17 177.67C691.79 194.74 679.99 210.07 665.8 230.01C661.64 235.87 658.57 242.25 654.24 248.22C636.12 273.23 620.77 298.45 603.97 322C598.12 330.19 592.79 339.93 587.67 347.17C576.277 363.283 565.213 379.62 554.48 396.18C549.72 403.52 546.053 409.087 543.48 412.88C527.19 436.91 511.05 466.84 479.56 472.91C474.36 473.91 469.09 474.44 463.75 474.5C447.003 474.693 430.313 474.697 413.68 474.51C413.508 474.507 413.338 474.551 413.189 474.638C413.041 474.726 412.919 474.852 412.838 475.005C412.756 475.158 412.718 475.33 412.727 475.504C412.736 475.678 412.793 475.846 412.89 475.99C416.81 481.84 422.45 488.19 425.82 492.55C435.01 504.43 441.29 512.34 451.65 519.62C458.61 524.5 463.55 528.49 469.42 533.21C474.2 537.04 478.82 541.85 483.67 545.81C484.563 546.537 485.417 546.493 486.23 545.68L506.34 525.51ZM796.43 286.7C794.32 286.88 792.68 286.87 790.61 287.71C789.077 288.323 787.5 288.787 785.88 289.1C782.8 289.69 778.67 291.44 775.98 292.87C765.38 298.49 755.52 303.26 746.36 311.82C736.94 320.62 731.65 327.31 724.73 338.26C723.93 339.53 723.51 341.56 722.35 343.14C720.41 345.78 719.027 348.62 718.2 351.66C717.233 354.073 716.283 356.473 715.35 358.86C713.78 362.93 713.29 367.53 711.95 371.98C711.35 373.987 711.023 375.873 710.97 377.64C710.823 382.433 710.613 387.22 710.34 392C709.747 402.447 710.737 412.32 713.31 421.62C713.89 423.69 713.92 425.45 714.89 427.35C716.67 430.843 718.093 434.48 719.16 438.26C719.89 440.81 722.59 443.89 723.91 447.06C724.82 449.25 726.97 451.75 727.74 453C729.03 455.1 730.2 457.15 731.77 459.03C741.14 470.27 752.46 480.13 765.25 487.29C771.4 490.73 776.18 492.24 781.79 494.37C783.783 495.123 785.647 495.647 787.38 495.94C791.48 496.64 795.38 498.23 799.28 498.6C805.307 499.167 811.267 499.37 817.16 499.21C824.233 499.303 829.847 498.923 834 498.07C837.933 497.263 843.367 495.51 850.3 492.81C856.02 490.583 861.51 487.313 866.77 483C872.6 478.23 875.87 473.65 877.21 466.49C878.36 460.34 871.41 450.5 866.12 447.66C860.65 444.72 856.04 446.62 851.18 449.64C844.393 453.867 837.147 457.16 829.44 459.52C826.887 460.66 823.907 461.273 820.5 461.36C814.14 461.52 807.6 462.05 802.14 460.17C798.11 458.79 793.74 457.77 790.33 456.24C780.38 451.78 770.59 444.9 764.24 435.89C761.14 431.5 757.89 428.31 755.25 423C754.1 420.69 753.59 417.48 752.01 414.68C751.237 411.92 750.483 408.99 749.75 405.89C747.85 397.84 747.7 387.21 750.08 379.25C750.61 377.48 750.83 375.88 751.14 374.15C751.63 371.38 752.87 368.8 753.68 366.04C756.29 357.14 765.74 346.7 772.53 340.52C782.757 331.193 794.827 326.273 808.74 325.76C815.14 325.52 821.65 325 827.66 326.38C834.013 327.827 839.953 330.357 845.48 333.97C850.627 337.337 853.96 339.257 855.48 339.73C861.06 341.46 866.27 338.99 870.11 335.09C875.26 329.87 876.21 322.18 874.61 315.26C872.64 306.72 861.42 300.31 854.99 295.89C853.04 294.56 850.71 294.06 848.66 292.52C847.34 291.53 846.38 291.33 844.88 290.96C842.75 290.45 841.25 289.08 838.91 288.82C836.12 288.51 833.86 287.26 831.02 286.9C827.407 286.44 823.837 285.757 820.31 284.85C812.27 282.78 804.4 285.66 796.43 286.7ZM924.91 392.77C924.91 392.71 924.922 392.65 924.945 392.594C924.968 392.538 925.002 392.487 925.045 392.445C925.087 392.402 925.138 392.368 925.194 392.345C925.25 392.322 925.31 392.31 925.37 392.31L964.13 392.26C964.252 392.26 964.369 392.212 964.455 392.125C964.542 392.039 964.59 391.922 964.59 391.8L964.61 370.23C964.61 370.108 964.562 369.991 964.475 369.905C964.389 369.818 964.272 369.77 964.15 369.77L925.37 369.76C925.31 369.76 925.25 369.748 925.194 369.725C925.138 369.702 925.087 369.668 925.045 369.625C925.002 369.583 924.968 369.532 924.945 369.476C924.922 369.42 924.91 369.36 924.91 369.3L924.88 330.25C924.88 330.128 924.832 330.011 924.745 329.925C924.659 329.838 924.542 329.79 924.42 329.79H902.89C902.768 329.79 902.651 329.838 902.565 329.925C902.478 330.011 902.43 330.128 902.43 330.25L902.38 369.31C902.38 369.37 902.368 369.43 902.345 369.486C902.322 369.542 902.288 369.593 902.245 369.635C902.203 369.678 902.152 369.712 902.096 369.735C902.04 369.758 901.98 369.77 901.92 369.77H863.2C863.078 369.77 862.961 369.818 862.875 369.905C862.788 369.991 862.74 370.108 862.74 370.23V391.82C862.74 391.942 862.788 392.059 862.875 392.145C862.961 392.232 863.078 392.28 863.2 392.28H901.96C902.082 392.28 902.199 392.328 902.285 392.415C902.372 392.501 902.42 392.618 902.42 392.74L902.41 431.3C902.41 431.422 902.458 431.539 902.545 431.625C902.631 431.712 902.748 431.76 902.87 431.76H924.45C924.572 431.76 924.689 431.712 924.775 431.625C924.862 431.539 924.91 431.422 924.91 431.3V392.77Z" fill="white"/>
<path d="M609.3 131.38C609.273 131.58 609.093 131.66 608.76 131.62C608.667 131.613 608.62 131.657 608.62 131.75C608.62 131.85 608.617 131.95 608.61 132.05C608.603 132.19 608.667 132.283 608.8 132.33C609.453 132.557 610.04 132.887 610.56 133.32C610.833 133.547 610.997 133.837 611.05 134.19C611.31 135.96 612.28 137.01 614.13 137.35C619.03 138.257 623.94 139.13 628.86 139.97C630.25 140.21 631.56 139.89 632.96 139.74C635.28 139.5 637.28 140.53 639.48 141.11C643.21 142.1 647.51 140.83 650.86 142.16C653.427 143.173 655.527 143.69 657.16 143.71C657.48 143.717 657.773 143.81 658.04 143.99C660.43 145.64 663.35 145.88 666.01 146.96C666.983 147.36 668.197 148.187 669.65 149.44C671.58 151.12 673.7 151.94 675.78 153.35C678.08 154.91 680.75 156.07 683.02 157.56C683.289 157.734 683.48 158.006 683.551 158.32C683.622 158.634 683.568 158.964 683.4 159.24C679.72 165.16 676.69 169.57 670.78 175.33C669.493 176.59 668.077 178.22 666.53 180.22C664.843 182.4 663.333 183.96 662 184.9C659.92 186.367 657.7 186.617 655.34 185.65C653.493 184.897 650.78 183.623 647.2 181.83C646.913 181.69 646.613 181.62 646.3 181.62H644.96C644.624 181.62 644.302 181.503 644.05 181.29C641.563 179.25 638.983 178.617 636.31 179.39C634.83 179.137 632.227 178.433 628.5 177.28C624.48 176.04 619.28 174.907 612.9 173.88C607.7 173.047 602.417 172.493 597.05 172.22C572.64 170.99 550.67 173.5 527.76 182.78C515.88 187.59 507.79 191.45 497.59 198.1C464.47 219.67 440.55 251.48 428.01 288.57C426.05 294.39 424.74 301.19 423.01 307.55C423.657 304.983 423.833 302.883 423.54 301.25C423.526 301.167 423.488 301.091 423.431 301.03C423.373 300.969 423.299 300.927 423.217 300.909C423.136 300.89 423.05 300.897 422.972 300.928C422.895 300.958 422.828 301.011 422.78 301.08C421.81 302.45 420.78 303.18 420.22 304.82C419.3 307.527 418.49 310.263 417.79 313.03C417.01 316.12 417.54 320.05 416.64 324.02C416.28 325.65 416.57 327.34 416.08 329.02C415.553 330.847 415.267 332.043 415.22 332.61C414.82 337.323 414.66 342.043 414.74 346.77C414.84 352.74 416.32 359.23 417.12 365.49C417.127 365.53 417.297 366.36 417.63 367.98C418.16 370.48 417.85 373.37 417.65 375.75C417.517 377.303 416.993 378.767 416.08 380.14C413.287 384.34 409.833 388.363 405.72 392.21C403.893 393.917 402.197 394.067 400.63 392.66C400.35 392.413 400.19 392.103 400.15 391.73C399.803 388.577 399.663 385.417 399.73 382.25C399.73 382.23 399.817 382.063 399.99 381.75C400.057 381.63 400.147 381.587 400.26 381.62C400.587 381.72 400.767 381.6 400.8 381.26C401 379.28 400.94 377.483 400.62 375.87C399.9 372.2 401.39 370.52 401.89 367.65C402.36 364.96 402.41 361.76 400.33 359.65C399.637 358.95 398.947 358.24 398.26 357.52C398.038 357.298 397.882 357.021 397.81 356.72C397.11 353.76 396.913 351.517 397.22 349.99C397.65 347.82 399.99 348.56 401.26 348.33C403.38 347.957 404.637 346.67 405.03 344.47C405.087 344.15 405.074 343.821 404.993 343.505C404.912 343.189 404.764 342.894 404.56 342.64C402.347 339.907 401.943 336.777 403.35 333.25C404.24 331.01 403.72 319.59 401.66 317.25C401.565 317.137 401.348 316.669 401.043 315.921C400.738 315.173 400.363 314.19 399.98 313.13C398.76 309.77 399.84 304.87 401.29 300.96C402.59 297.45 401.97 294.74 401.68 291.24C401.49 288.91 402.23 286.67 402.57 284.35C402.78 282.92 401.97 282.11 401.97 281C401.977 279.267 401.687 277.583 401.1 275.95C401.087 275.923 401.097 275.903 401.13 275.89L401.51 275.75C401.577 275.723 401.603 275.677 401.59 275.61C401.317 274.597 401.263 273.56 401.43 272.5C401.463 272.28 401.42 272.077 401.3 271.89C401.133 271.643 401.153 271.403 401.36 271.17C401.607 270.89 401.717 270.563 401.69 270.19L401.39 265.73C401.37 265.397 401.427 265.077 401.56 264.77C401.68 264.49 401.833 264.263 402.02 264.09C402.267 263.857 402.417 263.57 402.47 263.23C403.03 259.897 404.96 257.947 408.26 257.38C408.6 257.32 408.903 257.18 409.17 256.96C413.86 253.09 414.98 248 415.33 242C415.44 240.03 416.15 238.99 417.45 237.68C417.677 237.454 417.818 237.157 417.85 236.84C418.01 235.287 418.48 234.253 419.26 233.74C420.307 233.053 421.33 232.34 422.33 231.6C423.163 230.98 423.593 230.197 423.62 229.25C423.693 226.903 424.28 224.837 425.38 223.05C427.14 220.19 428.81 216.9 429.97 214.99C430.59 213.977 431.093 213 431.48 212.06C431.873 211.113 432.38 210.167 433 209.22C433.58 208.327 434.077 207.377 434.49 206.37C434.603 206.077 434.76 205.81 434.96 205.57C435.687 204.683 435.603 203.943 434.71 203.35C444.09 192.59 454.52 181.89 466.61 174.08C474.81 168.787 481.043 164.873 485.31 162.34C494.64 156.79 505.78 152.92 515.97 148.16C525.11 143.87 533.73 140.67 542.81 137.26C548.68 135.06 554.26 133.5 560.5 133.64C565.56 133.75 571.14 130.77 577 130.76C587.58 130.73 598.81 130.19 609.3 131.38Z" fill="#FEDE03"/>
<path d="M609.3 131.38C609.89 131.6 610.63 131.52 611.15 131.66C616.88 133.2 622.92 133.52 628.4 134.79C632.94 135.84 637.37 136.37 641.9 137.85C645.14 138.91 648.45 139.38 651.61 140.43C654.92 141.54 657.78 142.26 661.53 143.58C663.097 144.133 664.997 144.713 667.23 145.32C672.323 146.713 678.447 149.31 685.6 153.11C691.39 156.18 686.17 160.03 684.02 162.93C677.4 171.863 669.743 180.243 661.05 188.07C660.237 188.797 659.343 188.987 658.37 188.64C654.17 187.153 650.073 185.433 646.08 183.48C642.96 181.94 639.58 180.88 636.31 179.39C638.983 178.617 641.563 179.25 644.05 181.29C644.302 181.503 644.624 181.62 644.96 181.62H646.3C646.613 181.62 646.913 181.69 647.2 181.83C650.78 183.623 653.493 184.897 655.34 185.65C657.7 186.617 659.92 186.367 662 184.9C663.333 183.96 664.843 182.4 666.53 180.22C668.077 178.22 669.493 176.59 670.78 175.33C676.69 169.57 679.72 165.16 683.4 159.24C683.568 158.964 683.622 158.634 683.551 158.32C683.48 158.006 683.289 157.734 683.02 157.56C680.75 156.07 678.08 154.91 675.78 153.35C673.7 151.94 671.58 151.12 669.65 149.44C668.197 148.187 666.983 147.36 666.01 146.96C663.35 145.88 660.43 145.64 658.04 143.99C657.773 143.81 657.48 143.717 657.16 143.71C655.527 143.69 653.427 143.173 650.86 142.16C647.51 140.83 643.21 142.1 639.48 141.11C637.28 140.53 635.28 139.5 632.96 139.74C631.56 139.89 630.25 140.21 628.86 139.97C623.94 139.13 619.03 138.257 614.13 137.35C612.28 137.01 611.31 135.96 611.05 134.19C610.997 133.837 610.833 133.547 610.56 133.32C610.04 132.887 609.453 132.557 608.8 132.33C608.667 132.283 608.603 132.19 608.61 132.05C608.617 131.95 608.62 131.85 608.62 131.75C608.62 131.657 608.667 131.613 608.76 131.62C609.093 131.66 609.273 131.58 609.3 131.38Z" fill="#FEDE03"/>
<path d="M711.65 233.45C710.843 232.07 711.237 230.487 712.83 228.7C716.1 225.01 719.06 221.03 722.07 217.16C726.61 210.813 729.783 206.957 731.59 205.59C733.817 203.897 735.953 202.1 738 200.2C739.773 198.553 741.26 197.25 742.46 196.29C746.18 193.33 750.03 189.93 753.69 187.9C753.943 187.76 754.157 187.577 754.33 187.35C754.517 187.103 754.747 186.927 755.02 186.82C758.19 185.59 761.23 183.61 764.11 182.45C766.823 181.363 769.537 180.263 772.25 179.15C774.12 178.39 776.96 176.62 779.73 176.05C781.51 175.68 782.84 174.72 784.55 174.22C786.2 173.74 787.66 172.53 789.62 172.6C789.933 172.607 790.223 172.53 790.49 172.37C791.57 171.73 792.61 172.46 793.88 171.51C794.127 171.323 794.4 171.2 794.7 171.14C799.093 170.26 803.523 169.833 807.99 169.86C808.237 169.86 808.61 169.697 809.11 169.37C809.37 169.197 809.66 169.11 809.98 169.11C811.68 169.12 812.91 168.15 814.39 168.01C818.417 167.643 822.453 167.53 826.5 167.67C829.15 167.76 831.87 166.93 834.19 166.77C835.71 166.663 837.31 166.513 838.99 166.32C839.252 166.292 839.495 166.167 839.669 165.969C839.843 165.77 839.936 165.514 839.93 165.25C839.89 163.34 841.41 161.4 839.67 159.8C839.423 159.573 839.223 159.307 839.07 159C838.09 157.1 837.15 155.17 835.15 154.18C834.377 153.793 833.58 153.463 832.76 153.19C829.52 152.11 826.41 150.34 823.39 148.74C823.17 148.627 822.917 148.563 822.63 148.55C822.263 148.53 822.003 148.487 821.85 148.42C816.963 146.153 812.067 143.903 807.16 141.67C806.972 141.585 806.758 141.564 806.55 141.61C805.62 141.82 804.67 141.02 803.47 141.02C803.183 141.02 802.927 140.937 802.7 140.77C801.07 139.63 798.65 139.97 795.84 140.13C795.627 140.143 795.423 140.11 795.23 140.03C794.923 139.903 794.63 139.923 794.35 140.09C794.137 140.217 793.903 140.293 793.65 140.32C791.8 140.48 790.51 140.77 788.44 140.64C786.15 140.5 784.63 141.41 782.24 140.2C781.9 140.027 781.56 140.027 781.22 140.2L779.77 140.94C779.477 141.087 779.167 141.147 778.84 141.12C778.02 141.06 777.26 141.227 776.56 141.62C776.3 141.767 776.023 141.837 775.73 141.83C773.203 141.777 770.873 142.38 768.74 143.64C767.07 144.62 765.33 145.12 763.65 146.02C763.383 146.163 763.083 146.219 762.79 146.18C759.7 145.77 757.02 147.57 755.07 148.21C753.39 148.763 751.7 149.527 750 150.5C746.8 152.33 742.72 153.46 739.74 154.96C737.807 155.933 735.893 156.937 734 157.97C732.72 158.66 731.68 159.9 730.32 160.58C729.06 161.207 728.143 161.797 727.57 162.35C724.46 165.36 721.57 168.08 717.84 170.35C716.673 171.057 715.617 171.917 714.67 172.93C712.023 175.77 709.33 178.56 706.59 181.3C704.36 183.53 702.36 186.38 700.03 188.78C699.95 188.853 699.9 188.94 699.88 189.04C699.847 189.193 699.777 189.327 699.67 189.44L691.65 198.02C687.35 203.667 682.973 209.333 678.52 215.02C677.17 216.73 676.39 218.64 674.95 220.38C671.103 225.033 667.477 230.27 664.07 236.09C660.703 241.823 656.903 247.54 652.67 253.24C647.81 259.773 644.307 264.673 642.16 267.94C634.707 279.293 627.237 290.633 619.75 301.96C615.78 307.97 609.93 315.66 605.45 322.9C605.063 323.52 604.163 324.633 602.75 326.24C601.543 327.613 599.743 330.463 597.35 334.79C593.74 341.32 589.55 346.97 585.52 353.05C584.25 354.96 582.19 357.08 580.92 359.49C580.58 360.13 580.2 360.72 579.78 361.26C576.91 364.94 574.66 368.93 572.16 372.85C570.27 375.82 567.96 378.62 566.03 381.55C562.537 386.823 559.057 392.103 555.59 397.39C552.78 401.69 550.24 406.13 547.52 410.49C546.77 411.71 545.68 412.81 544.59 414.66C543.92 415.79 542.94 416.22 542.33 417.36C540.68 420.44 538.36 423.62 536.76 426.23C534.047 430.637 531.107 434.887 527.94 438.98C526.19 441.24 524.53 444.03 523.12 445.88C520.933 448.753 516.883 453.343 510.97 459.65C509.95 460.65 508.76 461.19 507.78 462.11C507.04 462.803 506.217 463.383 505.31 463.85C504.07 464.48 503.46 465.56 502.52 466.11C498.37 468.51 494.91 471.24 490.3 472.7C485.89 474.1 481.99 475.6 477.16 476.36C473.41 476.95 469.88 478.45 466.28 478.86C464.72 479.04 462.21 479.6 460.72 479.34C460.44 479.287 460.22 479.353 460.06 479.54C459.867 479.767 459.62 479.867 459.32 479.84C458.48 479.76 457.82 479.793 457.34 479.94C456.333 480.247 456.1 480.85 456.64 481.75L459.8 487.05C459.853 487.143 459.88 487.247 459.88 487.36L459.89 487.76C459.89 487.913 459.963 488 460.11 488.02C460.783 488.113 461.123 488.513 461.13 489.22C461.13 489.384 461.168 489.546 461.241 489.692C461.314 489.838 461.42 489.964 461.55 490.06C462.75 490.96 463.413 492.147 463.54 493.62C463.553 493.76 463.62 493.797 463.74 493.73L463.98 493.6C464.24 493.46 464.45 493.517 464.61 493.77C466.07 496.18 469.95 501.66 470.24 504.24C470.241 504.262 470.248 504.282 470.261 504.3C470.274 504.317 470.292 504.33 470.312 504.338C470.332 504.345 470.354 504.347 470.375 504.342C470.396 504.337 470.415 504.326 470.43 504.31C470.497 504.243 470.563 504.177 470.63 504.11C470.77 503.977 470.88 503.997 470.96 504.17C472.43 507.21 474.84 510.26 476.27 512.54C477.497 514.5 478.747 516.447 480.02 518.38C480.733 519.467 482.163 521.287 484.31 523.84C486.577 526.553 488.453 529.54 489.94 532.8C490.044 533.022 490.228 533.197 490.453 533.288C490.678 533.379 490.927 533.38 491.15 533.29C491.517 533.15 491.763 532.963 491.89 532.73C491.99 532.543 492.137 532.49 492.33 532.57C492.817 532.763 493.22 532.757 493.54 532.55C495.7 531.16 497.55 530.34 499.23 528.2C500.57 526.507 502.13 525.017 503.91 523.73C504.199 523.522 504.549 523.417 504.904 523.432C505.259 523.446 505.599 523.579 505.87 523.81C506.377 524.243 506.533 524.81 506.34 525.51L486.23 545.68C485.417 546.493 484.563 546.537 483.67 545.81C478.82 541.85 474.2 537.04 469.42 533.21C463.55 528.49 458.61 524.5 451.65 519.62C441.29 512.34 435.01 504.43 425.82 492.55C422.45 488.19 416.81 481.84 412.89 475.99C412.793 475.846 412.736 475.678 412.727 475.504C412.718 475.33 412.756 475.158 412.838 475.005C412.919 474.852 413.041 474.726 413.189 474.638C413.338 474.551 413.508 474.507 413.68 474.51C430.313 474.697 447.003 474.693 463.75 474.5C469.09 474.44 474.36 473.91 479.56 472.91C511.05 466.84 527.19 436.91 543.48 412.88C546.053 409.087 549.72 403.52 554.48 396.18C565.213 379.62 576.277 363.283 587.67 347.17C592.79 339.93 598.12 330.19 603.97 322C620.77 298.45 636.12 273.23 654.24 248.22C658.57 242.25 661.64 235.87 665.8 230.01C679.99 210.07 691.79 194.74 708.17 177.67C720.24 165.1 734.02 154.92 749.88 147.69C756.087 144.857 760.97 142.907 764.53 141.84C772.04 139.59 778.01 137.16 785.35 136.1C788.61 135.62 793.4 133.68 795.75 133.74C803.997 133.96 810.163 133.713 814.25 133C818.863 132.193 822.793 131.75 826.04 131.67C830.44 131.57 835.68 133.31 839.75 133.46C844.583 133.647 849.417 133.823 854.25 133.99C857.1 134.09 859.25 135.48 862.14 135.74C864.78 135.97 867.23 136.26 869.89 137.12C873.28 138.22 876.64 138.79 880.07 139.99C883.25 141.11 886.38 141.57 889.54 142.78C891.85 143.67 894.31 144.22 896.47 145.11C910.44 150.88 925.51 159.09 935.71 165.79C954.33 178.01 970.54 194.18 985.05 210.86C986.057 212.02 987.307 213.657 988.8 215.77C990.4 218.04 992.29 220.22 993.72 222.4C996.713 226.96 999.61 231.577 1002.41 236.25C1004.48 239.73 1006.16 243.82 1008.18 247.59C1011.1 253.06 1014.07 259.77 1016.05 265.14C1017.9 270.16 1020.51 275.2 1021.49 280.47C1022.74 287.223 1024.3 293.903 1026.18 300.51C1026.49 301.59 1026.73 303.473 1026.92 306.16C1027.91 320.55 1029.2 335.68 1028.93 349.5C1028.72 359.94 1028.04 370.36 1026.89 380.76C1026.29 386.193 1025.18 391.207 1023.56 395.8C1022.02 400.19 1021.32 404.93 1020.03 408.7C1017.97 414.66 1015.93 420.68 1013.36 426.29C1007.59 438.897 1000.88 450.707 993.21 461.72C988.05 469.15 983.47 476.62 978.27 483.19C966.237 498.423 958.297 508.177 954.45 512.45C946.083 521.73 932.723 535.187 914.37 552.82C907.63 559.3 899.93 564.8 893.17 571.35C886.85 577.48 880.83 583.58 873.79 589.18C864.34 596.68 856.3 605.42 846.73 612.93C841.6 616.96 836.86 621.47 831.66 625.38C824.92 630.43 818.65 636.94 814.68 640.18C809.327 644.56 804.793 648.353 801.08 651.56C788.12 662.74 776.78 672.07 764.51 682.19C759.35 686.45 754.313 690.433 749.4 694.14C738.76 702.17 729.28 710.14 715.79 714.65C713.403 715.45 710.33 716.24 706.57 717.02C702.4 717.88 698.21 719.02 694.08 719.13C681.67 719.47 668 717.02 657.09 710.85C646.25 704.72 637.91 697.32 628.62 689.22C615.36 677.68 603.31 664.39 589.45 653.59C582.36 648.07 576.07 641.26 569.65 634.97C559.94 625.47 549.19 617.25 539.54 607.72C535.49 603.71 531.71 599.86 527.01 596.29C523.33 593.497 519.2 590.19 514.62 586.37C511.36 583.66 512.92 581.28 515.32 578.65C523.49 569.7 530.75 564.34 538.81 557.3C539.043 557.093 539.317 557 539.63 557.02C542.203 557.18 543.92 557.74 544.78 558.7C555.57 570.82 567.76 582.03 582.35 596.01C596.72 609.79 611.95 622.76 626.1 636.63C633.147 643.537 638.323 648.37 641.63 651.13C647.07 655.67 651.53 659.61 657.36 665.2C661.993 669.633 667.303 673.117 673.29 675.65C676.37 676.96 679.38 678.52 682.54 679.25C691.993 681.437 701.48 681.36 711 679.02C714.347 678.193 719.643 675.607 726.89 671.26C735.17 666.293 741.323 662.077 745.35 658.61C748.183 656.163 750.667 654.133 752.8 652.52C758.78 647.98 763.39 643.69 768.9 639.49C775.43 634.52 780.74 629.13 787.01 624.28C790.103 621.887 793.123 619.403 796.07 616.83C802.08 611.58 809.02 606.57 815.04 600.79C818.6 597.38 822.45 595.02 826.05 591.9C837.53 581.953 848.943 571.923 860.29 561.81C865 557.62 871.15 553.14 875.04 549.54C893.513 532.447 911.517 514.867 929.05 496.8C930.803 494.987 933.347 492.25 936.68 488.59C942.21 482.52 947.36 475.51 952.83 469.03C956.27 464.95 959.117 461.207 961.37 457.8C968.117 447.573 974.17 437.56 979.53 427.76C983.583 420.36 986.993 412.433 989.76 403.98C991.73 397.94 993.07 390.49 994.84 383.74C995.913 379.633 996.713 375.587 997.24 371.6C998.11 365.04 999.41 358.54 999.63 352.08C999.957 342.307 999.903 335.947 999.47 333C997.77 321.42 997.31 310.57 993.43 298.78C992.41 295.7 991.87 292.05 991.01 289.49C989.61 285.343 985.95 277.18 980.03 265C978.363 261.58 975.087 256.38 970.2 249.4C955.49 228.37 937.31 210.4 915.59 197.41C905.95 191.64 893.65 185.47 881.37 181.17C874.81 178.87 868.62 176.64 861.17 175.3C857.53 174.65 852.23 173.18 847.49 172.9C843.71 172.673 839.933 172.427 836.16 172.16C823.74 171.28 811.46 171.77 799.11 173.27C797.23 173.497 795.03 173.963 792.51 174.67C788.56 175.78 784.67 176.35 780.75 177.72C771.36 181.01 762.35 184.49 753.05 190.49C747.98 193.76 742.71 198.34 737.56 202.31C735.74 203.71 733.4 206.117 730.54 209.53C724.113 217.19 717.817 225.163 711.65 233.45Z" fill="#FEDE03"/>
<path d="M722.07 217.16L722.27 216.12C722.323 215.847 722.217 215.75 721.95 215.83C721.763 215.89 721.597 215.89 721.45 215.83C721.143 215.71 721.123 215.547 721.39 215.34C721.663 215.133 721.697 214.84 721.49 214.46C721.357 214.233 721.17 214.077 720.93 213.99C718.81 213.2 715.03 211.35 713.61 209.59C713.017 208.87 712.407 208.147 711.78 207.42C711.571 207.178 711.302 206.995 711 206.89C710.03 206.57 709.67 205.65 708.95 205.19C706.17 203.41 703.17 202.76 700.39 201.08C698.95 200.213 697.443 199.48 695.87 198.88C695.483 198.733 695.137 198.373 694.83 197.8C694.69 197.52 694.467 197.413 694.16 197.48L691.65 198.02L699.67 189.44C699.777 189.327 699.847 189.193 699.88 189.04C699.9 188.94 699.95 188.853 700.03 188.78C702.36 186.38 704.36 183.53 706.59 181.3C709.33 178.56 712.023 175.77 714.67 172.93C715.617 171.917 716.673 171.057 717.84 170.35C721.57 168.08 724.46 165.36 727.57 162.35C728.143 161.797 729.06 161.207 730.32 160.58C731.68 159.9 732.72 158.66 734 157.97C735.893 156.937 737.807 155.933 739.74 154.96C742.72 153.46 746.8 152.33 750 150.5C751.7 149.527 753.39 148.763 755.07 148.21C757.02 147.57 759.7 145.77 762.79 146.18C763.083 146.219 763.383 146.163 763.65 146.02C765.33 145.12 767.07 144.62 768.74 143.64C770.873 142.38 773.203 141.777 775.73 141.83C776.023 141.837 776.3 141.767 776.56 141.62C777.26 141.227 778.02 141.06 778.84 141.12C779.167 141.147 779.477 141.087 779.77 140.94L781.22 140.2C781.56 140.027 781.9 140.027 782.24 140.2C784.63 141.41 786.15 140.5 788.44 140.64C790.51 140.77 791.8 140.48 793.65 140.32C793.903 140.293 794.137 140.217 794.35 140.09C794.63 139.923 794.923 139.903 795.23 140.03C795.423 140.11 795.627 140.143 795.84 140.13C798.65 139.97 801.07 139.63 802.7 140.77C802.927 140.937 803.183 141.02 803.47 141.02C804.67 141.02 805.62 141.82 806.55 141.61C806.758 141.564 806.972 141.585 807.16 141.67C812.067 143.903 816.963 146.153 821.85 148.42C822.003 148.487 822.263 148.53 822.63 148.55C822.917 148.563 823.17 148.627 823.39 148.74C826.41 150.34 829.52 152.11 832.76 153.19C833.58 153.463 834.377 153.793 835.15 154.18C837.15 155.17 838.09 157.1 839.07 159C839.223 159.307 839.423 159.573 839.67 159.8C841.41 161.4 839.89 163.34 839.93 165.25C839.936 165.514 839.843 165.77 839.669 165.969C839.495 166.167 839.252 166.292 838.99 166.32C837.31 166.513 835.71 166.663 834.19 166.77C831.87 166.93 829.15 167.76 826.5 167.67C822.453 167.53 818.417 167.643 814.39 168.01C812.91 168.15 811.68 169.12 809.98 169.11C809.66 169.11 809.37 169.197 809.11 169.37C808.61 169.697 808.237 169.86 807.99 169.86C803.523 169.833 799.093 170.26 794.7 171.14C794.4 171.2 794.127 171.323 793.88 171.51C792.61 172.46 791.57 171.73 790.49 172.37C790.223 172.53 789.933 172.607 789.62 172.6C787.66 172.53 786.2 173.74 784.55 174.22C782.84 174.72 781.51 175.68 779.73 176.05C776.96 176.62 774.12 178.39 772.25 179.15C769.537 180.263 766.823 181.363 764.11 182.45C761.23 183.61 758.19 185.59 755.02 186.82C754.747 186.927 754.517 187.103 754.33 187.35C754.157 187.577 753.943 187.76 753.69 187.9C750.03 189.93 746.18 193.33 742.46 196.29C741.26 197.25 739.773 198.553 738 200.2C735.953 202.1 733.817 203.897 731.59 205.59C729.783 206.957 726.61 210.813 722.07 217.16Z" fill="#FFEA5C"/>
<path d="M722.07 217.16C719.06 221.03 716.1 225.01 712.83 228.7C711.237 230.487 710.843 232.07 711.65 233.45C704.057 244.623 699.107 251.993 696.8 255.56C694.12 259.7 691.03 263.64 688.68 267.4C680.29 280.88 670.9 294.14 662.52 307.09C653.93 320.38 644.71 333.21 636.47 346.74C633.07 352.31 634.87 355.27 637.27 361.89C640.437 370.643 643.977 379.243 647.89 387.69C648.41 388.8 649.11 389.75 649.48 390.88C651.32 396.37 653.95 401.33 655.77 406.89C657.36 411.73 660.17 417.19 661.8 421.05C663.32 424.66 665.26 428.2 666.65 431.62C670.69 441.55 674.13 447.63 677.2 455.26C678.8 459.2 680.53 463.09 682.23 466.99C682.843 468.41 683.363 470.837 683.79 474.27C683.423 477.897 683.07 481.273 682.73 484.4C682.637 485.22 682.383 486 681.97 486.74C680.86 488.72 680.26 490.48 678.46 491.84C675.62 493.98 672.39 494.863 668.77 494.49C665.73 494.19 663.97 494.15 661.43 494.17C661.097 494.17 660.8 494.067 660.54 493.86C656.44 490.6 652.61 486.31 650.05 481.63C647.003 476.057 644.297 470.32 641.93 464.42C641.337 462.933 640.373 460.88 639.04 458.26C636.61 453.45 633.53 444.54 629.66 437.33C628.647 435.45 627.7 434.097 626.82 433.27C624.087 430.703 620.867 430.023 617.16 431.23L588.87 430.91C589.057 429.403 588.293 428.617 586.58 428.55C586.34 428.543 586.14 428.457 585.98 428.29C585.76 428.063 585.493 427.933 585.18 427.9C582.873 427.7 580.637 428.037 578.47 428.91C578.29 428.983 578.18 429.097 578.14 429.25C578.087 429.45 577.957 429.573 577.75 429.62C573.06 430.63 569.65 437.39 567.09 441.1C566.12 442.51 564.16 444.47 563.27 446.66C562.397 448.8 561.747 450.17 561.32 450.77C560.333 452.143 559.253 453.45 558.08 454.69C557.864 454.925 557.716 455.212 557.65 455.52C557.443 456.567 556.863 457.363 555.91 457.91C555.557 458.117 555.333 458.417 555.24 458.81C554.907 460.183 554.097 461.14 552.81 461.68C552.676 461.733 552.557 461.817 552.461 461.925C552.366 462.032 552.297 462.161 552.26 462.3C551.83 463.79 550.15 466.39 549.1 467.49C547.18 469.49 545.53 471.683 544.15 474.07C542.4 477.12 540.27 479.24 538.26 481.94C535.91 485.09 534.16 489.93 530.26 493.32C530.093 493.467 529.96 493.44 529.86 493.24L529.5 492.53C529.413 492.363 529.297 492.337 529.15 492.45C528.963 492.603 528.767 492.663 528.56 492.63C528.407 492.603 528.24 492.467 528.06 492.22C527.547 491.533 526.61 490.713 525.25 489.76C523.717 488.687 521.963 486.437 519.99 483.01C516.857 477.57 513.603 472.207 510.23 466.92C510.043 466.627 509.927 466.313 509.88 465.98C509.82 465.56 509.59 465.227 509.19 464.98C508.937 464.82 508.777 464.593 508.71 464.3L508.59 463.74C508.53 463.433 508.64 463.22 508.92 463.1C510.153 462.573 510.837 461.423 510.97 459.65C516.883 453.343 520.933 448.753 523.12 445.88C524.53 444.03 526.19 441.24 527.94 438.98C531.107 434.887 534.047 430.637 536.76 426.23C538.36 423.62 540.68 420.44 542.33 417.36C542.94 416.22 543.92 415.79 544.59 414.66C545.68 412.81 546.77 411.71 547.52 410.49C550.24 406.13 552.78 401.69 555.59 397.39C559.057 392.103 562.537 386.823 566.03 381.55C567.96 378.62 570.27 375.82 572.16 372.85C574.66 368.93 576.91 364.94 579.78 361.26C580.2 360.72 580.58 360.13 580.92 359.49C582.19 357.08 584.25 354.96 585.52 353.05C589.55 346.97 593.74 341.32 597.35 334.79C599.743 330.463 601.543 327.613 602.75 326.24C604.163 324.633 605.063 323.52 605.45 322.9C609.93 315.66 615.78 307.97 619.75 301.96C627.237 290.633 634.707 279.293 642.16 267.94C644.307 264.673 647.81 259.773 652.67 253.24C656.903 247.54 660.703 241.823 664.07 236.09C667.477 230.27 671.103 225.033 674.95 220.38C676.39 218.64 677.17 216.73 678.52 215.02C682.973 209.333 687.35 203.667 691.65 198.02L694.16 197.48C694.467 197.413 694.69 197.52 694.83 197.8C695.137 198.373 695.483 198.733 695.87 198.88C697.443 199.48 698.95 200.213 700.39 201.08C703.17 202.76 706.17 203.41 708.95 205.19C709.67 205.65 710.03 206.57 711 206.89C711.302 206.995 711.571 207.178 711.78 207.42C712.407 208.147 713.017 208.87 713.61 209.59C715.03 211.35 718.81 213.2 720.93 213.99C721.17 214.077 721.357 214.233 721.49 214.46C721.697 214.84 721.663 215.133 721.39 215.34C721.123 215.547 721.143 215.71 721.45 215.83C721.597 215.89 721.763 215.89 721.95 215.83C722.217 215.75 722.323 215.847 722.27 216.12L722.07 217.16ZM606.08 398.04C604.693 397.213 602.797 397.11 600.39 397.73C599.15 398.04 598.13 399.07 597.55 400.06C595.48 403.61 593.55 407.42 591.02 410.66C590.167 411.76 589.457 412.793 588.89 413.76C586.61 414.74 585.963 416.887 586.95 420.2C587.043 420.507 587.227 420.737 587.5 420.89C589.88 422.243 592.053 422.42 594.02 421.42C597.227 422.113 599.803 422.297 601.75 421.97C604.79 421.463 607.607 421.027 610.2 420.66C610.6 421.807 612.13 421.82 614.79 420.7C621.34 417.96 609.26 400.34 606.93 396.99C606.879 396.918 606.808 396.863 606.725 396.833C606.642 396.803 606.552 396.799 606.467 396.822C606.381 396.845 606.305 396.894 606.249 396.961C606.192 397.029 606.158 397.112 606.15 397.2L606.08 398.04Z" fill="#FFEE7F"/>
<path d="M434.71 203.35C435.603 203.943 435.687 204.683 434.96 205.57C434.76 205.81 434.603 206.077 434.49 206.37C434.077 207.377 433.58 208.327 433 209.22C432.38 210.167 431.873 211.113 431.48 212.06C431.093 213 430.59 213.977 429.97 214.99C428.81 216.9 427.14 220.19 425.38 223.05C424.28 224.837 423.693 226.903 423.62 229.25C423.593 230.197 423.163 230.98 422.33 231.6C421.33 232.34 420.307 233.053 419.26 233.74C418.48 234.253 418.01 235.287 417.85 236.84C417.818 237.157 417.677 237.454 417.45 237.68C416.15 238.99 415.44 240.03 415.33 242C414.98 248 413.86 253.09 409.17 256.96C408.903 257.18 408.6 257.32 408.26 257.38C404.96 257.947 403.03 259.897 402.47 263.23C402.417 263.57 402.267 263.857 402.02 264.09C401.833 264.263 401.68 264.49 401.56 264.77C401.427 265.077 401.37 265.397 401.39 265.73L401.69 270.19C401.717 270.563 401.607 270.89 401.36 271.17C401.153 271.403 401.133 271.643 401.3 271.89C401.42 272.077 401.463 272.28 401.43 272.5C401.263 273.56 401.317 274.597 401.59 275.61C401.603 275.677 401.577 275.723 401.51 275.75L401.13 275.89C401.097 275.903 401.087 275.923 401.1 275.95C401.687 277.583 401.977 279.267 401.97 281C401.97 282.11 402.78 282.92 402.57 284.35C402.23 286.67 401.49 288.91 401.68 291.24C401.97 294.74 402.59 297.45 401.29 300.96C399.84 304.87 398.76 309.77 399.98 313.13C400.363 314.19 400.738 315.173 401.043 315.921C401.348 316.669 401.565 317.137 401.66 317.25C403.72 319.59 404.24 331.01 403.35 333.25C401.943 336.777 402.347 339.907 404.56 342.64C404.764 342.894 404.912 343.189 404.993 343.505C405.074 343.821 405.087 344.15 405.03 344.47C404.637 346.67 403.38 347.957 401.26 348.33C399.99 348.56 397.65 347.82 397.22 349.99C396.913 351.517 397.11 353.76 397.81 356.72C397.882 357.021 398.038 357.298 398.26 357.52C398.947 358.24 399.637 358.95 400.33 359.65C402.41 361.76 402.36 364.96 401.89 367.65C401.39 370.52 399.9 372.2 400.62 375.87C400.94 377.483 401 379.28 400.8 381.26C400.767 381.6 400.587 381.72 400.26 381.62C400.147 381.587 400.057 381.63 399.99 381.75C399.817 382.063 399.73 382.23 399.73 382.25C399.663 385.417 399.803 388.577 400.15 391.73C400.19 392.103 400.35 392.413 400.63 392.66C402.197 394.067 403.893 393.917 405.72 392.21C409.833 388.363 413.287 384.34 416.08 380.14C416.993 378.767 417.517 377.303 417.65 375.75C417.85 373.37 418.16 370.48 417.63 367.98C417.297 366.36 417.127 365.53 417.12 365.49C416.32 359.23 414.84 352.74 414.74 346.77C414.66 342.043 414.82 337.323 415.22 332.61C415.267 332.043 415.553 330.847 416.08 329.02C416.57 327.34 416.28 325.65 416.64 324.02C417.54 320.05 417.01 316.12 417.79 313.03C418.49 310.263 419.3 307.527 420.22 304.82C420.78 303.18 421.81 302.45 422.78 301.08C422.828 301.011 422.895 300.958 422.972 300.928C423.05 300.897 423.136 300.89 423.217 300.909C423.299 300.927 423.373 300.969 423.431 301.03C423.488 301.091 423.526 301.167 423.54 301.25C423.833 302.883 423.657 304.983 423.01 307.55C421.49 314.697 420.67 320.347 420.55 324.5C420.097 340.727 420.193 355.227 420.84 368C421.19 374.82 423.59 378.88 417.85 385.24C412.69 390.96 407.607 396.753 402.6 402.62C401.373 404.06 400.19 405.13 399.05 405.83C394.68 408.52 392.67 397.42 392.01 395.23C390.22 389.34 390.97 383.28 389.45 377.19C388.37 372.88 387.99 368.37 386.95 364.23C386.25 361.46 385.55 358.99 385.51 356.05C385.4 346.77 384.04 337.31 384.63 328.26C385.42 316.09 385.9 307.56 387.78 298.6C388.4 295.67 389.77 292.51 390.44 289.3C391.75 283.05 392.69 278.29 394.77 273.14C396.317 269.3 397.573 265.367 398.54 261.34C399.48 257.39 401.02 254.04 402.3 250.27C403.79 245.91 408.16 241.41 410.73 237C412.04 234.73 413.28 232.45 414.76 230.32C421.12 221.15 427.54 211.95 434.71 203.35Z" fill="#FEDE03"/>
<path d="M752.01 414.68C751.483 416.407 751.61 418.597 752.39 421.25C753.45 424.857 755.127 427.87 757.42 430.29C758.68 431.623 759.623 432.813 760.25 433.86C761.043 435.187 761.873 436.49 762.74 437.77C763.067 438.25 763.91 439.25 765.27 440.77C765.983 441.577 766.803 442.613 767.73 443.88C768.663 445.147 770.197 446.47 772.33 447.85C772.428 447.915 772.507 448.009 772.56 448.12C772.853 448.76 773.3 449.173 773.9 449.36C774.18 449.44 774.41 449.593 774.59 449.82C775.73 451.26 777.69 451.85 779.65 453.05C781.07 453.91 782.87 455.7 784.97 456.44C786.07 456.84 787.413 457.653 789 458.88C790.34 459.913 792.073 460.463 794.2 460.53C794.497 460.536 794.781 460.646 795 460.84C797.187 462.733 799.623 464.217 802.31 465.29C802.623 465.417 802.89 465.603 803.11 465.85C803.65 466.437 804.307 466.687 805.08 466.6C805.413 466.56 805.71 466.647 805.97 466.86L807.49 468.11C808.343 468.81 808.307 469.467 807.38 470.08C806.493 470.66 805.543 471.313 804.53 472.04C804.337 472.173 804.31 472.307 804.45 472.44C804.523 472.513 804.55 472.6 804.53 472.7C804.49 472.867 804.423 472.92 804.33 472.86C804.177 472.773 804.043 472.793 803.93 472.92C801.97 475.093 799.75 476.96 797.27 478.52C793.363 480.973 789.353 483.233 785.24 485.3C782.61 486.62 778.38 485.71 775.47 485.99C773.91 486.13 772.68 485.51 771.02 485.65C770.707 485.677 770.417 485.607 770.15 485.44C768.517 484.447 766.783 483.72 764.95 483.26C763.62 482.93 762.67 482.14 761.4 481.67C758.37 480.56 755.99 478.83 753.73 476.56C752.983 475.82 752.123 475.22 751.15 474.76C750.983 474.68 750.897 474.547 750.89 474.36C750.89 474.247 750.877 474.14 750.85 474.04C750.803 473.88 750.687 473.737 750.5 473.61C748.053 471.923 745.68 470.14 743.38 468.26C742.86 467.84 742.49 466.97 741.74 466.67C741.467 466.557 741.227 466.397 741.02 466.19L735.19 460.28C735.017 460.107 734.923 459.897 734.91 459.65C734.86 459.03 731.6 455.8 730.92 454.48C729.13 450.99 726.57 448.22 724.83 444.83C724.123 443.457 723.387 442.1 722.62 440.76C719.33 434.96 717.35 428.36 714.84 422.2C714.707 421.873 714.507 421.697 714.24 421.67C714.013 421.643 713.703 421.627 713.31 421.62C710.737 412.32 709.747 402.447 710.34 392C710.613 387.22 710.823 382.433 710.97 377.64C711.023 375.873 711.35 373.987 711.95 371.98C713.29 367.53 713.78 362.93 715.35 358.86C716.283 356.473 717.233 354.073 718.2 351.66C718.267 352.093 718.38 352.393 718.54 352.56C718.84 352.867 719.077 352.827 719.25 352.44C720.61 349.427 722.19 346.533 723.99 343.76C725.22 341.86 725.58 339.87 726.9 337.97C729.67 333.97 732.07 329.61 735.23 326.1C742.74 317.74 750.95 309.18 760.41 303.37C768.92 298.15 778.62 292.58 788.44 290.32C790.12 289.93 792.53 289.09 794.73 288.91C795.323 288.857 795.8 288.703 796.16 288.45C797.167 287.743 797.257 287.16 796.43 286.7C804.4 285.66 812.27 282.78 820.31 284.85C823.837 285.757 827.407 286.44 831.02 286.9C833.86 287.26 836.12 288.51 838.91 288.82C841.25 289.08 842.75 290.45 844.88 290.96C846.38 291.33 847.34 291.53 848.66 292.52C850.71 294.06 853.04 294.56 854.99 295.89C861.42 300.31 872.64 306.72 874.61 315.26C876.21 322.18 875.26 329.87 870.11 335.09C866.27 338.99 861.06 341.46 855.48 339.73C853.96 339.257 850.627 337.337 845.48 333.97C839.953 330.357 834.013 327.827 827.66 326.38C821.65 325 815.14 325.52 808.74 325.76C794.827 326.273 782.757 331.193 772.53 340.52C765.74 346.7 756.29 357.14 753.68 366.04C752.87 368.8 751.63 371.38 751.14 374.15C750.83 375.88 750.61 377.48 750.08 379.25C747.7 387.21 747.85 397.84 749.75 405.89C750.483 408.99 751.237 411.92 752.01 414.68Z" fill="#FFEE7F"/>
<path d="M796.43 286.7C797.257 287.16 797.167 287.743 796.16 288.45C795.8 288.703 795.323 288.857 794.73 288.91C792.53 289.09 790.12 289.93 788.44 290.32C778.62 292.58 768.92 298.15 760.41 303.37C750.95 309.18 742.74 317.74 735.23 326.1C732.07 329.61 729.67 333.97 726.9 337.97C725.58 339.87 725.22 341.86 723.99 343.76C722.19 346.533 720.61 349.427 719.25 352.44C719.077 352.827 718.84 352.867 718.54 352.56C718.38 352.393 718.267 352.093 718.2 351.66C719.027 348.62 720.41 345.78 722.35 343.14C723.51 341.56 723.93 339.53 724.73 338.26C731.65 327.31 736.94 320.62 746.36 311.82C755.52 303.26 765.38 298.49 775.98 292.87C778.67 291.44 782.8 289.69 785.88 289.1C787.5 288.787 789.077 288.323 790.61 287.71C792.68 286.87 794.32 286.88 796.43 286.7Z" fill="#FEDE03"/>
<path d="M924.91 392.77V431.3C924.91 431.422 924.862 431.539 924.775 431.625C924.689 431.712 924.572 431.76 924.45 431.76H902.87C902.748 431.76 902.631 431.712 902.545 431.625C902.458 431.539 902.41 431.422 902.41 431.3L902.42 392.74C902.42 392.618 902.372 392.501 902.285 392.415C902.199 392.328 902.082 392.28 901.96 392.28H863.2C863.078 392.28 862.961 392.232 862.875 392.145C862.788 392.059 862.74 391.942 862.74 391.82V370.23C862.74 370.108 862.788 369.991 862.875 369.905C862.961 369.818 863.078 369.77 863.2 369.77H901.92C901.98 369.77 902.04 369.758 902.096 369.735C902.152 369.712 902.203 369.678 902.245 369.635C902.288 369.593 902.322 369.542 902.345 369.486C902.368 369.43 902.38 369.37 902.38 369.31L902.43 330.25C902.43 330.128 902.478 330.011 902.565 329.925C902.651 329.838 902.768 329.79 902.89 329.79H924.42C924.542 329.79 924.659 329.838 924.745 329.925C924.832 330.011 924.88 330.128 924.88 330.25L924.91 369.3C924.91 369.36 924.922 369.42 924.945 369.476C924.968 369.532 925.002 369.583 925.045 369.625C925.087 369.668 925.138 369.702 925.194 369.725C925.25 369.748 925.31 369.76 925.37 369.76L964.15 369.77C964.272 369.77 964.389 369.818 964.475 369.905C964.562 369.991 964.61 370.108 964.61 370.23L964.59 391.8C964.59 391.922 964.542 392.039 964.455 392.125C964.369 392.212 964.252 392.26 964.13 392.26L925.37 392.31C925.31 392.31 925.25 392.322 925.194 392.345C925.138 392.368 925.087 392.402 925.045 392.445C925.002 392.487 924.968 392.538 924.945 392.594C924.922 392.65 924.91 392.71 924.91 392.77Z" fill="#FEDE03"/>
<path d="M610.2 420.66C613.853 419.887 615.457 417.93 615.01 414.79C614.67 412.42 612.8 410.46 611.46 408.37C609.55 405.39 608.68 401.46 606.08 398.04L606.15 397.2C606.158 397.112 606.192 397.029 606.249 396.961C606.305 396.894 606.381 396.845 606.467 396.822C606.552 396.799 606.642 396.803 606.725 396.833C606.808 396.863 606.879 396.918 606.93 396.99C609.26 400.34 621.34 417.96 614.79 420.7C612.13 421.82 610.6 421.807 610.2 420.66Z" fill="#FEDE03"/>
<path d="M606.08 398.04C608.68 401.46 609.55 405.39 611.46 408.37C612.8 410.46 614.67 412.42 615.01 414.79C615.457 417.93 613.853 419.887 610.2 420.66C607.607 421.027 604.79 421.463 601.75 421.97C599.803 422.297 597.227 422.113 594.02 421.42C589.83 419.53 588.74 418.69 588.89 413.76C589.457 412.793 590.167 411.76 591.02 410.66C593.55 407.42 595.48 403.61 597.55 400.06C598.13 399.07 599.15 398.04 600.39 397.73C602.797 397.11 604.693 397.213 606.08 398.04Z" fill="white"/>
<path d="M588.89 413.76C588.74 418.69 589.83 419.53 594.02 421.42C592.053 422.42 589.88 422.243 587.5 420.89C587.227 420.737 587.043 420.507 586.95 420.2C585.963 416.887 586.61 414.74 588.89 413.76Z" fill="#FEDE03"/>
<path d="M752.01 414.68C753.59 417.48 754.1 420.69 755.25 423C757.89 428.31 761.14 431.5 764.24 435.89C770.59 444.9 780.38 451.78 790.33 456.24C793.74 457.77 798.11 458.79 802.14 460.17C807.6 462.05 814.14 461.52 820.5 461.36C823.907 461.273 826.887 460.66 829.44 459.52C829.427 459.767 829.36 460.023 829.24 460.29C829.113 460.57 829.193 460.753 829.48 460.84C830.147 461.04 830.737 461.053 831.25 460.88C838.53 458.47 845.91 457.02 852.2 452.12C855.75 449.35 858.51 448.28 862.68 449.61C864.81 450.3 866.62 452.56 868.45 454.03C868.69 454.217 868.75 454.453 868.63 454.74C868.57 454.887 868.623 454.927 868.79 454.86C868.862 454.833 868.94 454.825 869.016 454.84C869.092 454.854 869.163 454.888 869.22 454.94C871.767 457.213 873.483 459.403 874.37 461.51C875.93 465.24 874.58 468.02 872.96 471.44C872.213 473.013 871.433 474.57 870.62 476.11C869.13 478.94 864.94 480.09 862.33 481.73C862.043 481.91 861.733 482.013 861.4 482.04C860.36 482.12 859.477 482.537 858.75 483.29C858.49 483.557 858.183 483.74 857.83 483.84C857.183 484.033 856.693 484.413 856.36 484.98C856.158 485.306 855.866 485.564 855.52 485.72C854.607 486.12 853.803 486.67 853.11 487.37C852.857 487.617 852.557 487.77 852.21 487.83C850.58 488.09 849.53 489.34 848.2 489.8C843.2 491.53 838.3 493.41 833.03 494.36C829.4 495.01 825.97 496.29 822.25 496.53C820.577 496.63 819.52 496.897 819.08 497.33C818.48 497.923 817.84 498.55 817.16 499.21C811.267 499.37 805.307 499.167 799.28 498.6C795.38 498.23 791.48 496.64 787.38 495.94C785.647 495.647 783.783 495.123 781.79 494.37C776.18 492.24 771.4 490.73 765.25 487.29C752.46 480.13 741.14 470.27 731.77 459.03C730.2 457.15 729.03 455.1 727.74 453C726.97 451.75 724.82 449.25 723.91 447.06C722.59 443.89 719.89 440.81 719.16 438.26C718.093 434.48 716.67 430.843 714.89 427.35C713.92 425.45 713.89 423.69 713.31 421.62C713.703 421.627 714.013 421.643 714.24 421.67C714.507 421.697 714.707 421.873 714.84 422.2C717.35 428.36 719.33 434.96 722.62 440.76C723.387 442.1 724.123 443.457 724.83 444.83C726.57 448.22 729.13 450.99 730.92 454.48C731.6 455.8 734.86 459.03 734.91 459.65C734.923 459.897 735.017 460.107 735.19 460.28L741.02 466.19C741.227 466.397 741.467 466.557 741.74 466.67C742.49 466.97 742.86 467.84 743.38 468.26C745.68 470.14 748.053 471.923 750.5 473.61C750.687 473.737 750.803 473.88 750.85 474.04C750.877 474.14 750.89 474.247 750.89 474.36C750.897 474.547 750.983 474.68 751.15 474.76C752.123 475.22 752.983 475.82 753.73 476.56C755.99 478.83 758.37 480.56 761.4 481.67C762.67 482.14 763.62 482.93 764.95 483.26C766.783 483.72 768.517 484.447 770.15 485.44C770.417 485.607 770.707 485.677 771.02 485.65C772.68 485.51 773.91 486.13 775.47 485.99C778.38 485.71 782.61 486.62 785.24 485.3C789.353 483.233 793.363 480.973 797.27 478.52C799.75 476.96 801.97 475.093 803.93 472.92C804.043 472.793 804.177 472.773 804.33 472.86C804.423 472.92 804.49 472.867 804.53 472.7C804.55 472.6 804.523 472.513 804.45 472.44C804.31 472.307 804.337 472.173 804.53 472.04C805.543 471.313 806.493 470.66 807.38 470.08C808.307 469.467 808.343 468.81 807.49 468.11L805.97 466.86C805.71 466.647 805.413 466.56 805.08 466.6C804.307 466.687 803.65 466.437 803.11 465.85C802.89 465.603 802.623 465.417 802.31 465.29C799.623 464.217 797.187 462.733 795 460.84C794.781 460.646 794.497 460.536 794.2 460.53C792.073 460.463 790.34 459.913 789 458.88C787.413 457.653 786.07 456.84 784.97 456.44C782.87 455.7 781.07 453.91 779.65 453.05C777.69 451.85 775.73 451.26 774.59 449.82C774.41 449.593 774.18 449.44 773.9 449.36C773.3 449.173 772.853 448.76 772.56 448.12C772.507 448.009 772.428 447.915 772.33 447.85C770.197 446.47 768.663 445.147 767.73 443.88C766.803 442.613 765.983 441.577 765.27 440.77C763.91 439.25 763.067 438.25 762.74 437.77C761.873 436.49 761.043 435.187 760.25 433.86C759.623 432.813 758.68 431.623 757.42 430.29C755.127 427.87 753.45 424.857 752.39 421.25C751.61 418.597 751.483 416.407 752.01 414.68Z" fill="#FFEA5C"/>
<path d="M588.87 430.91C583.53 430.12 578.71 431.09 574.86 435.01C572.873 437.03 571.643 438.427 571.17 439.2C563.99 451.01 554.17 464.5 548.09 473.49C534.15 494.14 522.19 509.84 506.34 525.51C506.533 524.81 506.377 524.243 505.87 523.81C505.599 523.579 505.259 523.446 504.904 523.432C504.549 523.417 504.199 523.522 503.91 523.73C502.13 525.017 500.57 526.507 499.23 528.2C497.55 530.34 495.7 531.16 493.54 532.55C493.22 532.757 492.817 532.763 492.33 532.57C492.137 532.49 491.99 532.543 491.89 532.73C491.763 532.963 491.517 533.15 491.15 533.29C490.927 533.38 490.678 533.379 490.453 533.288C490.228 533.197 490.044 533.022 489.94 532.8C488.453 529.54 486.577 526.553 484.31 523.84C482.163 521.287 480.733 519.467 480.02 518.38C478.747 516.447 477.497 514.5 476.27 512.54C474.84 510.26 472.43 507.21 470.96 504.17C470.88 503.997 470.77 503.977 470.63 504.11C470.563 504.177 470.497 504.243 470.43 504.31C470.415 504.326 470.396 504.337 470.375 504.342C470.354 504.347 470.332 504.345 470.312 504.338C470.292 504.33 470.274 504.317 470.261 504.3C470.248 504.282 470.241 504.262 470.24 504.24C469.95 501.66 466.07 496.18 464.61 493.77C464.45 493.517 464.24 493.46 463.98 493.6L463.74 493.73C463.62 493.797 463.553 493.76 463.54 493.62C463.413 492.147 462.75 490.96 461.55 490.06C461.42 489.964 461.314 489.838 461.241 489.692C461.168 489.546 461.13 489.384 461.13 489.22C461.123 488.513 460.783 488.113 460.11 488.02C459.963 488 459.89 487.913 459.89 487.76L459.88 487.36C459.88 487.247 459.853 487.143 459.8 487.05L456.64 481.75C456.1 480.85 456.333 480.247 457.34 479.94C457.82 479.793 458.48 479.76 459.32 479.84C459.62 479.867 459.867 479.767 460.06 479.54C460.22 479.353 460.44 479.287 460.72 479.34C462.21 479.6 464.72 479.04 466.28 478.86C469.88 478.45 473.41 476.95 477.16 476.36C481.99 475.6 485.89 474.1 490.3 472.7C494.91 471.24 498.37 468.51 502.52 466.11C503.46 465.56 504.07 464.48 505.31 463.85C506.217 463.383 507.04 462.803 507.78 462.11C508.76 461.19 509.95 460.65 510.97 459.65C510.837 461.423 510.153 462.573 508.92 463.1C508.64 463.22 508.53 463.433 508.59 463.74L508.71 464.3C508.777 464.593 508.937 464.82 509.19 464.98C509.59 465.227 509.82 465.56 509.88 465.98C509.927 466.313 510.043 466.627 510.23 466.92C513.603 472.207 516.857 477.57 519.99 483.01C521.963 486.437 523.717 488.687 525.25 489.76C526.61 490.713 527.547 491.533 528.06 492.22C528.24 492.467 528.407 492.603 528.56 492.63C528.767 492.663 528.963 492.603 529.15 492.45C529.297 492.337 529.413 492.363 529.5 492.53L529.86 493.24C529.96 493.44 530.093 493.467 530.26 493.32C534.16 489.93 535.91 485.09 538.26 481.94C540.27 479.24 542.4 477.12 544.15 474.07C545.53 471.683 547.18 469.49 549.1 467.49C550.15 466.39 551.83 463.79 552.26 462.3C552.297 462.161 552.366 462.032 552.461 461.925C552.557 461.817 552.676 461.733 552.81 461.68C554.097 461.14 554.907 460.183 555.24 458.81C555.333 458.417 555.557 458.117 555.91 457.91C556.863 457.363 557.443 456.567 557.65 455.52C557.716 455.212 557.864 454.925 558.08 454.69C559.253 453.45 560.333 452.143 561.32 450.77C561.747 450.17 562.397 448.8 563.27 446.66C564.16 444.47 566.12 442.51 567.09 441.1C569.65 437.39 573.06 430.63 577.75 429.62C577.957 429.573 578.087 429.45 578.14 429.25C578.18 429.097 578.29 428.983 578.47 428.91C580.637 428.037 582.873 427.7 585.18 427.9C585.493 427.933 585.76 428.063 585.98 428.29C586.14 428.457 586.34 428.543 586.58 428.55C588.293 428.617 589.057 429.403 588.87 430.91Z" fill="#FFEA5C"/>
<path d="M683.79 474.27C685.13 477.117 685.51 480.037 684.93 483.03C683.84 488.67 679 495.87 672.75 496.09C666.817 496.303 662.643 496.167 660.23 495.68C656.14 494.86 649.82 484.66 647.88 480.96C646.24 477.84 644.583 474.73 642.91 471.63C642.1 470.12 641.82 468.29 641.09 466.91C638.25 461.49 634.16 452.24 631.49 445.25C629.52 440.08 627.62 434 621.66 432.62C620.24 432.293 618.74 431.83 617.16 431.23C620.867 430.023 624.087 430.703 626.82 433.27C627.7 434.097 628.647 435.45 629.66 437.33C633.53 444.54 636.61 453.45 639.04 458.26C640.373 460.88 641.337 462.933 641.93 464.42C644.297 470.32 647.003 476.057 650.05 481.63C652.61 486.31 656.44 490.6 660.54 493.86C660.8 494.067 661.097 494.17 661.43 494.17C663.97 494.15 665.73 494.19 668.77 494.49C672.39 494.863 675.62 493.98 678.46 491.84C680.26 490.48 680.86 488.72 681.97 486.74C682.383 486 682.637 485.22 682.73 484.4C683.07 481.273 683.423 477.897 683.79 474.27Z" fill="#FEDE03"/>
<path d="M817.16 499.21C817.84 498.55 818.48 497.923 819.08 497.33C819.52 496.897 820.577 496.63 822.25 496.53C825.97 496.29 829.4 495.01 833.03 494.36C838.3 493.41 843.2 491.53 848.2 489.8C849.53 489.34 850.58 488.09 852.21 487.83C852.557 487.77 852.857 487.617 853.11 487.37C853.803 486.67 854.607 486.12 855.52 485.72C855.866 485.564 856.158 485.306 856.36 484.98C856.693 484.413 857.183 484.033 857.83 483.84C858.183 483.74 858.49 483.557 858.75 483.29C859.477 482.537 860.36 482.12 861.4 482.04C861.733 482.013 862.043 481.91 862.33 481.73C864.94 480.09 869.13 478.94 870.62 476.11C871.433 474.57 872.213 473.013 872.96 471.44C874.58 468.02 875.93 465.24 874.37 461.51C873.483 459.403 871.767 457.213 869.22 454.94C869.163 454.888 869.092 454.854 869.016 454.84C868.94 454.825 868.862 454.833 868.79 454.86C868.623 454.927 868.57 454.887 868.63 454.74C868.75 454.453 868.69 454.217 868.45 454.03C866.62 452.56 864.81 450.3 862.68 449.61C858.51 448.28 855.75 449.35 852.2 452.12C845.91 457.02 838.53 458.47 831.25 460.88C830.737 461.053 830.147 461.04 829.48 460.84C829.193 460.753 829.113 460.57 829.24 460.29C829.36 460.023 829.427 459.767 829.44 459.52C837.147 457.16 844.393 453.867 851.18 449.64C856.04 446.62 860.65 444.72 866.12 447.66C871.41 450.5 878.36 460.34 877.21 466.49C875.87 473.65 872.6 478.23 866.77 483C861.51 487.313 856.02 490.583 850.3 492.81C843.367 495.51 837.933 497.263 834 498.07C829.847 498.923 824.233 499.303 817.16 499.21Z" fill="#FEDE03"/>
</g>
<defs>
<clipPath id="clip0_1_2">
<rect width="1414" height="768" fill="white"/>
</clipPath>
</defs>
</svg>
